<?xml version="1.0" encoding="UTF-8"?>
<svg version="1.1" xmlns="http://www.w3.org/2000/svg" width="222" height="210">
<path d="M0 0 C0.99 0 1.98 0 3 0 C4.14138556 13.4354752 4.55650742 26.90422881 5.0625 40.375 C5.15408623 42.76823724 5.24588138 45.16146649 5.33789062 47.5546875 C5.56100319 53.36970177 5.78153413 59.1848094 6 65 C6.99 65 7.98 65 9 65 C8.979375 66.134375 8.95875 67.26875 8.9375 68.4375 C8.58422523 71.81575674 8.58422523 71.81575674 10 73 C9.96777152 75.03039402 9.93188381 77.06128092 9.83984375 79.08984375 C9.81348256 81.24385229 9.81348256 81.24385229 12 83 C12.16015625 85.20703125 12.16015625 85.20703125 12.0625 87.8125 C11.98522555 91.41348944 12.25781937 94.47464202 13 98 C13 99.98571977 12.99818648 101.97166087 12.9609375 103.95703125 C12.95267598 106.26727398 12.95267598 106.26727398 13.625 109.5625 C14.0765622 113.70182012 13.3517746 116.1037085 12 120 C13.32 120.33 14.64 120.66 16 121 C15.67 123.97 15.34 126.94 15 130 C17.041875 130.185625 17.041875 130.185625 19.125 130.375 C22.97235271 130.79437968 26.37129822 131.60434547 30 133 C29.52891903 137.6855732 27.70898637 139.83126584 24.5 143.1875 C21.38154906 146.3345872 21.38154906 146.3345872 19 150 C18.34 150 17.68 150 17 150 C16.73832031 150.72832031 16.47664063 151.45664063 16.20703125 152.20703125 C14.97737132 155.05236086 13.53603464 157.2077584 11.6875 159.6875 C8.19453557 164.54695888 5.50462715 169.57523151 3 175 C2.01 175 1.02 175 0 175 C-1.33838733 172.54429825 -2.67086232 170.08570084 -4 167.625 C-4.3815625 166.92632812 -4.763125 166.22765625 -5.15625 165.5078125 C-8 160.2265625 -8 160.2265625 -8 158 C-8.66 158 -9.32 158 -10 158 C-11.41015625 156.1640625 -11.41015625 156.1640625 -13.0625 153.625 C-16.35910917 148.73213797 -20.06561611 144.54288518 -24.1796875 140.32421875 C-26.15019381 137.80822893 -26.65523149 136.14184211 -27 133 C-25.44033782 132.491217 -23.87710759 131.99336531 -22.3125 131.5 C-21.00732422 131.08234375 -21.00732422 131.08234375 -19.67578125 130.65625 C-17.00608323 130.00149195 -14.73603316 129.88168505 -12 130 C-12.33 127.36 -12.66 124.72 -13 122 C-11.02 121.01 -11.02 121.01 -9 120 C-9.350625 118.989375 -9.70125 117.97875 -10.0625 116.9375 C-11.1892448 113.07662622 -10.80531717 109.94605414 -10 106 C-9.34 106 -8.68 106 -8 106 C-8.495 104.14375 -8.495 104.14375 -9 102.25 C-9.79891159 99.25408155 -10 97.19892281 -10 94 C-9.34 94 -8.68 94 -8 94 C-8.09539062 93.22914062 -8.19078125 92.45828125 -8.2890625 91.6640625 C-8.45535156 90.15972656 -8.45535156 90.15972656 -8.625 88.625 C-8.74101563 87.62726563 -8.85703125 86.62953125 -8.9765625 85.6015625 C-8.98429687 84.74304688 -8.99203125 83.88453125 -9 83 C-8.01 82.01 -8.01 82.01 -7 81 C-6.75787127 79.01871492 -6.75787127 79.01871492 -6.875 76.875 C-6.91625 75.59625 -6.9575 74.3175 -7 73 C-6.34 73 -5.68 73 -5 73 C-5.495 72.01 -5.495 72.01 -6 71 C-6.039992 69.00039988 -6.04346799 66.99952758 -6 65 C-4.68 65 -3.36 65 -2 65 C-2.02320312 63.82695313 -2.04640625 62.65390625 -2.0703125 61.4453125 C-2.32731512 40.93529873 -1.07689684 20.47392834 0 0 Z " fill="#3C860E" transform="translate(112,19)"/>
<path d="M0 0 C1.41623216 -0.05447047 2.83308191 -0.09300508 4.25 -0.125 C5.03890625 -0.14820313 5.8278125 -0.17140625 6.640625 -0.1953125 C9.20731941 0.0171622 10.7916067 0.71345895 13 2 C13 2.66 13 3.32 13 4 C13.66 4 14.32 4 15 4 C15.2475 4.78375 15.495 5.5675 15.75 6.375 C16.72681333 9.11976952 16.72681333 9.11976952 19 10 C21.77858154 11.38929077 21.91659397 13.18314433 23 16 C23.99 16.33 24.98 16.66 26 17 C27.6484375 18.70703125 27.6484375 18.70703125 29.375 20.8125 C32.94051774 25.00855141 36.6909043 29.12620152 42 31 C44.33203812 31.0777346 46.66839059 31.08967728 49 31 C48.0356281 26.07098804 46.41853923 23.02116092 43.375 19 C39.52293362 13.78415856 39.52293362 13.78415856 39.5625 9.875 C39.706875 8.92625 39.85125 7.9775 40 7 C45.08872119 6.22562938 47.67108664 7.091981 51.9375 10 C59.13017249 15.44603558 64.89736971 21.67467669 70.4375 28.75 C70.87513672 29.30510254 71.31277344 29.86020508 71.76367188 30.43212891 C73.87628887 33.2001259 75.53269921 35.49949228 76 39 C76.66 39 77.32 39 78 39 C79.04261659 41.00968125 80.05823523 43.03338189 81.0625 45.0625 C81.63097656 46.18785156 82.19945313 47.31320313 82.78515625 48.47265625 C84.17583641 52.51054752 84.06110464 54.89398638 83 59 C77.8761324 61.5619338 71.90563339 59.65871607 66.6875 58.1875 C66.04031006 58.00735352 65.39312012 57.82720703 64.72631836 57.64160156 C59.4634195 56.16644946 54.21975597 54.62119479 49 53 C49 52.34 49 51.68 49 51 C47.95392578 50.86271484 47.95392578 50.86271484 46.88671875 50.72265625 C36.80788816 48.19953898 24.75988017 38.68559624 18 31 C18 30.34 18 29.68 18 29 C17.34 29 16.68 29 16 29 C15.34 27.35 14.68 25.7 14 24 C13.34 24 12.68 24 12 24 C8 19.64705882 8 19.64705882 8 16 C7.34 16 6.68 16 6 16 C4.79994469 13.9021477 3.61497017 11.7979751 2.4375 9.6875 C1.92413086 8.79514648 1.92413086 8.79514648 1.40039062 7.88476562 C0.52233738 6.29717441 -0.24586268 4.65006069 -1 3 C-0.67 2.01 -0.34 1.02 0 0 Z " fill="#FB9936" transform="translate(23,145)"/>
<path d="M0 0 C0.79921875 0.01804688 1.5984375 0.03609375 2.421875 0.0546875 C3.02515625 0.07789063 3.6284375 0.10109375 4.25 0.125 C5.13336837 2.5917645 5.3812406 3.76359372 4.47265625 6.265625 C4.08980469 6.96171875 3.70695312 7.6578125 3.3125 8.375 C2.93222656 9.08140625 2.55195313 9.7878125 2.16015625 10.515625 C1.85980469 11.04671875 1.55945313 11.5778125 1.25 12.125 C0.59 12.125 -0.07 12.125 -0.75 12.125 C-0.976875 12.99125 -1.20375 13.8575 -1.4375 14.75 C-2.99445553 18.75359994 -4.91492614 20.92645513 -7.75 24.125 C-8.08 24.785 -8.41 25.445 -8.75 26.125 C-9.41 26.125 -10.07 26.125 -10.75 26.125 C-10.75 26.785 -10.75 27.445 -10.75 28.125 C-12.625 30.25 -12.625 30.25 -14.75 32.125 C-15.41 32.125 -16.07 32.125 -16.75 32.125 C-16.75 32.785 -16.75 33.445 -16.75 34.125 C-30.07488138 47.47866083 -46.76133288 54.62294204 -64.75 59.125 C-65.45326416 59.30836914 -66.15652832 59.49173828 -66.88110352 59.68066406 C-70.22108091 60.47475405 -73.32398759 60.29077479 -76.75 60.125 C-78.75 58.125 -78.75 58.125 -78.97265625 55.91015625 C-78.48870109 47.68291854 -75.45454571 42.72926713 -70.75 36.125 C-69.80202025 34.56883584 -68.86318889 33.00702623 -67.9375 31.4375 C-67.215625 30.344375 -66.49375 29.25125 -65.75 28.125 C-65.09 28.125 -64.43 28.125 -63.75 28.125 C-63.316875 27.2278125 -63.316875 27.2278125 -62.875 26.3125 C-61.75 24.125 -61.75 24.125 -59.75 21.125 C-59.09 21.125 -58.43 21.125 -57.75 21.125 C-57.42 20.135 -57.09 19.145 -56.75 18.125 C-56.09 18.125 -55.43 18.125 -54.75 18.125 C-54.49347656 17.53074219 -54.23695313 16.93648437 -53.97265625 16.32421875 C-51.84036328 12.48881637 -48.5583613 10.20638866 -44.75 8.125 C-41.73344661 7.40233265 -38.84742848 7.13933995 -35.75 7.125 C-34.9719149 13.21999997 -36.66159915 15.94707613 -40.21484375 20.8359375 C-42.40753914 24.10545277 -43.52942914 27.39547792 -44.75 31.125 C-40.58861737 31.20659574 -36.8027516 31.10748524 -32.75 30.125 C-32.75 29.465 -32.75 28.805 -32.75 28.125 C-31.96625 27.8775 -31.1825 27.63 -30.375 27.375 C-27.25176632 25.88774587 -27.11184768 25.18915729 -25.75 22.125 C-24.19388483 19.9800845 -22.54042088 18.09446297 -20.75 16.125 C-20.09 16.125 -19.43 16.125 -18.75 16.125 C-18.09 14.475 -17.43 12.825 -16.75 11.125 C-16.09 11.125 -15.43 11.125 -14.75 11.125 C-14.3478125 10.1659375 -14.3478125 10.1659375 -13.9375 9.1875 C-12.75 7.125 -12.75 7.125 -9.75 6.125 C-9.605625 5.485625 -9.46125 4.84625 -9.3125 4.1875 C-8.75 2.125 -8.75 2.125 -7.01171875 1.00390625 C-4.49382197 0.02544895 -2.68830335 -0.07906775 0 0 Z " fill="#FB9834" transform="translate(199.75,144.875)"/>
<path d="M0 0 C21.03954593 -0.27131888 44.24559886 1.67849117 63 12 C63 12.66 63 13.32 63 14 C64.65 14.66 66.3 15.32 68 16 C68 16.66 68 17.32 68 18 C68.59941406 18.09539062 69.19882813 18.19078125 69.81640625 18.2890625 C74.6695075 19.86914198 77.09431695 25.41091643 79.49609375 29.625 C82.64805896 35.91107226 83.68327141 41.000264 83 48 C78.82718148 47.60258871 76.18640727 46.66480421 72.796875 44.21875 C70.62838506 42.74794813 68.3753677 41.54420469 66.0625 40.3125 C60.78633964 37.47701246 55.67018685 34.42347969 50.55126953 31.31762695 C46.89512124 29.10880076 43.21285219 27.00165948 39.4375 25 C35.2010991 22.73766165 31.1926179 20.20593294 27.1875 17.5625 C21.38267598 13.73777753 15.43700571 10.57708798 9.15625 7.60546875 C5.89989484 5.94908017 2.93377881 4.1782424 0 2 C0 1.34 0 0.68 0 0 Z " fill="#3B840D" transform="translate(124,90)"/>
<path d="M0 0 C-1.75143836 5.25431509 -7.12094213 7.05792491 -11.8828125 9.4453125 C-12.89085938 9.93773438 -13.89890625 10.43015625 -14.9375 10.9375 C-19.48349387 13.16771782 -23.63550793 15.62596231 -27.796875 18.5 C-34.11384692 22.80091705 -40.80854569 26.464593 -47.52734375 30.08984375 C-52.33979896 32.73696478 -57.106951 35.46138703 -61.875 38.1875 C-62.79128174 38.71102051 -63.70756348 39.23454102 -64.65161133 39.77392578 C-69.65827542 42.62170216 -69.65827542 42.62170216 -74.54345703 45.66918945 C-77 47 -77 47 -81 47 C-81.64330329 36.92158177 -77.47313667 27.86058601 -71.42578125 19.9375 C-59.07420373 6.21947898 -39.32292671 1.67067846 -21.625 0.1875 C-14.42368581 -0.12409533 -7.20628492 -0.09083552 0 0 Z " fill="#3C850D" transform="translate(101,91)"/>
<path d="M0 0 C1.0828125 0.48533203 1.0828125 0.48533203 2.1875 0.98046875 C4 2 4 2 4.8125 4.0625 C4.874375 4.701875 4.93625 5.34125 5 6 C3.24560837 7.75439163 0.94502544 7.11982963 -1.39170837 7.12442017 C-2.1642244 7.12082489 -2.93674042 7.11722961 -3.73266602 7.11352539 C-4.94720459 7.11374443 -4.94720459 7.11374443 -6.1862793 7.1139679 C-8.87551508 7.11326854 -11.56468249 7.1054751 -14.25390625 7.09765625 C-16.11335716 7.09579215 -17.97280856 7.09436821 -19.83226013 7.09336853 C-24.73629096 7.08954271 -29.64029236 7.07971188 -34.54431152 7.06866455 C-39.54451092 7.05845181 -44.54471506 7.05387121 -49.54492188 7.04882812 C-59.36329421 7.03808967 -69.18164466 7.02101248 -79 7 C-78.20394166 0.15937114 -76.77366831 -1.90486388 -71.55078125 -6.203125 C-49.6809679 -21.60911909 -21.55235594 -10.10984714 0 0 Z " fill="#418413" transform="translate(97,80)"/>
<path d="M0 0 C3.53164459 2.96808428 6.56722545 5.88387565 9.1875 9.6875 C9.1875 11.0075 9.1875 12.3275 9.1875 13.6875 C-18.5325 13.6875 -46.2525 13.6875 -74.8125 13.6875 C-74.4825 12.0375 -74.1525 10.3875 -73.8125 8.6875 C-72.1625 8.3575 -70.5125 8.0275 -68.8125 7.6875 C-68.8125 7.0275 -68.8125 6.3675 -68.8125 5.6875 C-67.636875 5.254375 -66.46125 4.82125 -65.25 4.375 C-60.59980837 2.63219613 -56.05487258 0.66640377 -51.50390625 -1.3203125 C-35.89402838 -7.89545606 -14.36249985 -10.59029353 0 0 Z " fill="#408312" transform="translate(200.8125,73.3125)"/>
<path d="M0 0 C-0.1328125 1.77734375 -0.1328125 1.77734375 -1 4 C-3.4921875 5.75390625 -3.4921875 5.75390625 -6.875 7.5625 C-8.15294096 8.26062665 -9.43025062 8.95990977 -10.70703125 9.66015625 C-11.7427124 10.22114014 -11.7427124 10.22114014 -12.79931641 10.79345703 C-16.75777427 12.96371427 -20.65739297 15.2355925 -24.5625 17.5 C-25.36872803 17.9645459 -26.17495605 18.4290918 -27.00561523 18.90771484 C-30.69531288 21.04186738 -34.35893514 23.20091846 -37.9609375 25.48046875 C-38.55447021 25.85558594 -39.14800293 26.23070313 -39.75952148 26.6171875 C-41.3233351 27.61467898 -42.87881593 28.62520098 -44.43359375 29.63671875 C-47 31 -47 31 -51 31 C-51 31.66 -51 32.32 -51 33 C-51.78246094 33.42152344 -52.56492188 33.84304687 -53.37109375 34.27734375 C-54.38300781 34.82519531 -55.39492187 35.37304688 -56.4375 35.9375 C-57.44683594 36.48277344 -58.45617187 37.02804688 -59.49609375 37.58984375 C-61.86670493 38.77699468 -61.86670493 38.77699468 -63 40 C-64.66617115 40.04063832 -66.33388095 40.042721 -68 40 C-67.39889791 35.89246904 -65.09853324 32.92358714 -62.75 29.625 C-62.17572266 28.79742187 -62.17572266 28.79742187 -61.58984375 27.953125 C-58.90923858 24.13393502 -56.12356062 20.46945828 -53 17 C-52.34 17 -51.68 17 -51 17 C-50.34 15.35 -49.68 13.7 -49 12 C-48.01 12 -47.02 12 -46 12 C-45.65775391 10.87271484 -45.65775391 10.87271484 -45.30859375 9.72265625 C-42.24277847 3.34393013 -33.80331504 0.12010409 -27.5 -2.4375 C-17.50197786 -5.71810101 -9.48378788 -4.10902995 0 0 Z " fill="#3D8511" transform="translate(190,40)"/>
<path d="M0 0 C2.69266331 2.14858591 5.27088088 4.25245426 7.66015625 6.734375 C7.66015625 7.394375 7.66015625 8.054375 7.66015625 8.734375 C8.24023438 8.97027344 8.8203125 9.20617187 9.41796875 9.44921875 C16.28385649 13.38454465 21.78988465 22.93207945 25.66015625 29.734375 C25.66015625 30.394375 25.66015625 31.054375 25.66015625 31.734375 C26.32015625 31.734375 26.98015625 31.734375 27.66015625 31.734375 C27.66015625 33.384375 27.66015625 35.034375 27.66015625 36.734375 C24.06007473 36.16494415 21.41912531 35.23926526 18.296875 33.37109375 C17.0893457 32.65856445 17.0893457 32.65856445 15.85742188 31.93164062 C14.61508789 31.18430664 14.61508789 31.18430664 13.34765625 30.421875 C7.54230326 26.96248944 1.74407909 23.68182208 -4.33984375 20.734375 C-4.33984375 20.074375 -4.33984375 19.414375 -4.33984375 18.734375 C-4.99984375 18.486875 -5.65984375 18.239375 -6.33984375 17.984375 C-12.87552051 15.26117635 -18.90673699 11.86283494 -24.94921875 8.18359375 C-27.00116453 6.93968544 -29.06552809 5.73091606 -31.15234375 4.546875 C-32.20421875 3.94875 -33.25609375 3.350625 -34.33984375 2.734375 C-35.30921875 2.21875 -36.27859375 1.703125 -37.27734375 1.171875 C-37.95796875 0.6975 -38.63859375 0.223125 -39.33984375 -0.265625 C-39.33984375 -1.255625 -39.33984375 -2.245625 -39.33984375 -3.265625 C-25.97051181 -9.29493156 -12.34921333 -8.8623334 0 0 Z " fill="#3C850E" transform="translate(76.33984375,43.265625)"/>
<path d="M0 0 C0.79921875 0.01804688 1.5984375 0.03609375 2.421875 0.0546875 C3.02515625 0.07789063 3.6284375 0.10109375 4.25 0.125 C5.13336837 2.5917645 5.3812406 3.76359372 4.47265625 6.265625 C4.08980469 6.96171875 3.70695312 7.6578125 3.3125 8.375 C2.93222656 9.08140625 2.55195313 9.7878125 2.16015625 10.515625 C1.85980469 11.04671875 1.55945313 11.5778125 1.25 12.125 C0.59 12.125 -0.07 12.125 -0.75 12.125 C-0.976875 12.99125 -1.20375 13.8575 -1.4375 14.75 C-2.99445553 18.75359994 -4.91492614 20.92645513 -7.75 24.125 C-8.08 24.785 -8.41 25.445 -8.75 26.125 C-9.41 26.125 -10.07 26.125 -10.75 26.125 C-10.75 26.785 -10.75 27.445 -10.75 28.125 C-12.625 30.25 -12.625 30.25 -14.75 32.125 C-15.41 32.125 -16.07 32.125 -16.75 32.125 C-16.75 32.785 -16.75 33.445 -16.75 34.125 C-24.80578794 42.19818705 -34.89671272 47.59191136 -44.75 53.125 C-45.74 51.805 -46.73 50.485 -47.75 49.125 C-44.78 48.465 -41.81 47.805 -38.75 47.125 C-39.41 46.135 -40.07 45.145 -40.75 44.125 C-38.77 44.455 -36.79 44.785 -34.75 45.125 C-34.9975 44.5475 -35.245 43.97 -35.5 43.375 C-35.62375 42.26125 -35.62375 42.26125 -35.75 41.125 C-33.8125 38.875 -33.8125 38.875 -31.75 37.125 C-32.74 36.795 -33.73 36.465 -34.75 36.125 C-33.76 35.135 -32.77 34.145 -31.75 33.125 C-32.74 33.62 -32.74 33.62 -33.75 34.125 C-35.80859375 34.29296875 -35.80859375 34.29296875 -38.1875 34.3125 C-38.96996094 34.32667969 -39.75242188 34.34085938 -40.55859375 34.35546875 C-42.75 34.125 -42.75 34.125 -45.75 32.125 C-46.26171875 29.9609375 -46.26171875 29.9609375 -46.4375 27.5 C-46.50324219 26.68273437 -46.56898438 25.86546875 -46.63671875 25.0234375 C-46.67410156 24.39695313 -46.71148437 23.77046875 -46.75 23.125 C-47.53375 23.310625 -48.3175 23.49625 -49.125 23.6875 C-51.75 24.125 -51.75 24.125 -53.75 23.125 C-53.75 23.785 -53.75 24.445 -53.75 25.125 C-54.78125 25.5375 -55.8125 25.95 -56.875 26.375 C-60.49548759 27.91610368 -63.5420077 29.85593228 -66.75 32.125 C-66.42 30.805 -66.09 29.485 -65.75 28.125 C-65.09 28.125 -64.43 28.125 -63.75 28.125 C-63.46125 27.526875 -63.1725 26.92875 -62.875 26.3125 C-61.75 24.125 -61.75 24.125 -59.75 21.125 C-59.09 21.125 -58.43 21.125 -57.75 21.125 C-57.42 20.135 -57.09 19.145 -56.75 18.125 C-56.09 18.125 -55.43 18.125 -54.75 18.125 C-54.49347656 17.53074219 -54.23695313 16.93648437 -53.97265625 16.32421875 C-51.84036328 12.48881637 -48.5583613 10.20638866 -44.75 8.125 C-41.73344661 7.40233265 -38.84742848 7.13933995 -35.75 7.125 C-34.9719149 13.21999997 -36.66159915 15.94707613 -40.21484375 20.8359375 C-42.40753914 24.10545277 -43.52942914 27.39547792 -44.75 31.125 C-40.58861737 31.20659574 -36.8027516 31.10748524 -32.75 30.125 C-32.75 29.465 -32.75 28.805 -32.75 28.125 C-31.96625 27.8775 -31.1825 27.63 -30.375 27.375 C-27.25176632 25.88774587 -27.11184768 25.18915729 -25.75 22.125 C-24.19388483 19.9800845 -22.54042088 18.09446297 -20.75 16.125 C-20.09 16.125 -19.43 16.125 -18.75 16.125 C-18.09 14.475 -17.43 12.825 -16.75 11.125 C-16.09 11.125 -15.43 11.125 -14.75 11.125 C-14.481875 10.485625 -14.21375 9.84625 -13.9375 9.1875 C-12.75 7.125 -12.75 7.125 -9.75 6.125 C-9.605625 5.485625 -9.46125 4.84625 -9.3125 4.1875 C-8.75 2.125 -8.75 2.125 -7.01171875 1.00390625 C-4.49382197 0.02544895 -2.68830335 -0.07906775 0 0 Z " fill="#F69C3F" transform="translate(199.75,144.875)"/>
<path d="M0 0 C7.80367686 -0.90042425 13.54109954 1.67088502 20 6 C31.74430108 16.56406654 33.86390992 31.77726777 34.89306641 46.70166016 C35.06844274 50.47105022 35.04129516 54.22712443 35 58 C33.11889648 57.67651367 33.11889648 57.67651367 31 57 C29.50662789 54.78294038 28.28142808 52.6755072 27.0625 50.3125 C26.28140101 48.86049366 25.49737071 47.41006167 24.7109375 45.9609375 C24.28393555 45.17041992 23.85693359 44.37990234 23.41699219 43.56542969 C20.78129221 38.79355937 17.97590177 34.12121414 15.1875 29.4375 C11.74719927 23.64900161 8.32440956 17.85590744 5 12 C4.51015625 11.15953125 4.0203125 10.3190625 3.515625 9.453125 C3.09796875 8.72609375 2.6803125 7.9990625 2.25 7.25 C1.82203125 6.51265625 1.3940625 5.7753125 0.953125 5.015625 C0 3 0 3 0 0 Z " fill="#3E870F" transform="translate(73,15)"/>
<path d="M0 0 C-0.44612241 5.57653012 -1.78689078 8.48427894 -5 13 C-5.95500487 14.71956079 -6.89071271 16.44990632 -7.8125 18.1875 C-9.86741392 22.01852042 -12.04863814 25.68100148 -14.4375 29.3125 C-18.52073906 35.60141731 -21.75896341 42.2519451 -25 49 C-25.66 49 -26.32 49 -27 49 C-27.29003906 49.92232422 -27.29003906 49.92232422 -27.5859375 50.86328125 C-27.84632812 51.67152344 -28.10671875 52.47976562 -28.375 53.3125 C-28.63023438 54.11300781 -28.88546875 54.91351563 -29.1484375 55.73828125 C-30 58 -30 58 -32 61 C-32.66 61 -33.32 61 -34 61 C-34.36075079 43.51097054 -33.39022297 23.35588481 -21.6875 9.4375 C-15.56030785 3.14691606 -8.85906636 -0.24608518 0 0 Z " fill="#3E8511" transform="translate(153,15)"/>
<path d="M0 0 C0.99 0 1.98 0 3 0 C4.14138556 13.4354752 4.55650742 26.90422881 5.0625 40.375 C5.15408623 42.76823724 5.24588138 45.16146649 5.33789062 47.5546875 C5.56100319 53.36970177 5.78153413 59.1848094 6 65 C6.99 65 7.98 65 9 65 C8.979375 66.134375 8.95875 67.26875 8.9375 68.4375 C8.58422523 71.81575674 8.58422523 71.81575674 10 73 C9.96777152 75.03039402 9.93188381 77.06128092 9.83984375 79.08984375 C9.81348256 81.24385229 9.81348256 81.24385229 12 83 C12.16015625 85.20703125 12.16015625 85.20703125 12.0625 87.8125 C11.99936458 90.57467463 11.96901298 92.85883689 12.5625 95.5625 C13.25432094 99.41693097 12.54546641 103.14816799 12 107 C10.88625 107.45375 9.7725 107.9075 8.625 108.375 C5.03800992 109.72465986 5.03800992 109.72465986 3 112 C1.0625 111.875 1.0625 111.875 -1 111 C-2.75 108.9375 -2.75 108.9375 -4 107 C-3.401875 107.33 -2.80375 107.66 -2.1875 108 C0.05386471 109.20787988 0.05386471 109.20787988 3 109 C3.66 108.505 4.32 108.01 5 107.5 C7 106 7 106 10 106 C10.33 102.04 10.66 98.08 11 94 C8.03 94.495 8.03 94.495 5 95 C5.495 94.01 5.495 94.01 6 93 C6.99 93 7.98 93 9 93 C9 89.7 9 86.4 9 83 C7.88625 83.680625 7.88625 83.680625 6.75 84.375 C1.9047619 87.23809524 1.9047619 87.23809524 0 88 C-0.99 87.67 -1.98 87.34 -3 87 C-3.33 86.34 -3.66 85.68 -4 85 C-4.99 84.67 -5.98 84.34 -7 84 C-7 85.98 -7 87.96 -7 90 C-7.33 90 -7.66 90 -8 90 C-8.625 86.625 -8.625 86.625 -9 83 C-8.01 82.01 -8.01 82.01 -7 81 C-6.75787127 79.01871492 -6.75787127 79.01871492 -6.875 76.875 C-6.936875 74.956875 -6.936875 74.956875 -7 73 C-6.34 73 -5.68 73 -5 73 C-5.33 72.34 -5.66 71.68 -6 71 C-6.039992 69.00039988 -6.04346799 66.99952758 -6 65 C-4.68 65 -3.36 65 -2 65 C-2.02320312 63.82695313 -2.04640625 62.65390625 -2.0703125 61.4453125 C-2.32731512 40.93529873 -1.07689684 20.47392834 0 0 Z " fill="#498627" transform="translate(112,19)"/>
<path d="M0 0 C1.41623216 -0.05447047 2.83308191 -0.09300508 4.25 -0.125 C5.03890625 -0.14820313 5.8278125 -0.17140625 6.640625 -0.1953125 C9.20731941 0.0171622 10.7916067 0.71345895 13 2 C13 2.66 13 3.32 13 4 C13.66 4 14.32 4 15 4 C15.2475 4.78375 15.495 5.5675 15.75 6.375 C16.72681333 9.11976952 16.72681333 9.11976952 19 10 C21.77858154 11.38929077 21.91659397 13.18314433 23 16 C23.99 16.33 24.98 16.66 26 17 C27.6484375 18.70703125 27.6484375 18.70703125 29.375 20.8125 C32.94051774 25.00855141 36.6909043 29.12620152 42 31 C44.33203812 31.0777346 46.66839059 31.08967728 49 31 C49.33 30.34 49.66 29.68 50 29 C50 29.99 50 30.98 50 32 C49.34 32 48.68 32 48 32 C48 32.66 48 33.32 48 34 C46.39620659 34.05416188 44.79188594 34.09286638 43.1875 34.125 C42.29417969 34.14820313 41.40085938 34.17140625 40.48046875 34.1953125 C38 34 38 34 35 32 C34.01 32 33.02 32 32 32 C32 31.34 32 30.68 32 30 C31.34 30 30.68 30 30 30 C29.01 32.475 29.01 32.475 28 35 C30.475 34.505 30.475 34.505 33 34 C33.33 34.99 33.66 35.98 34 37 C33.01 37.99 32.02 38.98 31 40 C32.32 40 33.64 40 35 40 C35 39.01 35 38.02 35 37 C35.66 37 36.32 37 37 37 C37 36.34 37 35.68 37 35 C37.99 35 38.98 35 40 35 C40 35.66 40 36.32 40 37 C39.34 37 38.68 37 38 37 C38.495 38.98 38.495 38.98 39 41 C38.01 41.495 38.01 41.495 37 42 C37.825 42.45375 38.65 42.9075 39.5 43.375 C40.325 43.91125 41.15 44.4475 42 45 C42 45.66 42 46.32 42 47 C42.99 47 43.98 47 45 47 C45 47.66 45 48.32 45 49 C46.32 49.33 47.64 49.66 49 50 C46 51 46 51 42.9609375 49.62890625 C41.75770568 48.95403332 40.56274508 48.26427055 39.375 47.5625 C38.75052979 47.19995117 38.12605957 46.83740234 37.48266602 46.46386719 C32.06905715 43.22673437 27.558416 39.34594746 23 35 C21.989375 34.21625 20.97875 33.4325 19.9375 32.625 C18.9784375 31.820625 18.9784375 31.820625 18 31 C18 30.34 18 29.68 18 29 C17.34 29 16.68 29 16 29 C15.34 27.35 14.68 25.7 14 24 C13.34 24 12.68 24 12 24 C8 19.64705882 8 19.64705882 8 16 C7.34 16 6.68 16 6 16 C4.79994469 13.9021477 3.61497017 11.7979751 2.4375 9.6875 C1.92413086 8.79514648 1.92413086 8.79514648 1.40039062 7.88476562 C0.52233738 6.29717441 -0.24586268 4.65006069 -1 3 C-0.67 2.01 -0.34 1.02 0 0 Z " fill="#F69D40" transform="translate(23,145)"/>
<path d="M0 0 C4.55061716 0.53536672 7.2977868 2.37759898 11 5 C11.94875 5.53625 12.8975 6.0725 13.875 6.625 C14.57625 7.07875 15.2775 7.5325 16 8 C16 8.66 16 9.32 16 10 C16.8353125 10.37125 16.8353125 10.37125 17.6875 10.75 C24.74205261 14.56327168 29.93139668 20.8590407 32.92578125 28.30078125 C34.80536401 35.49945535 33.66899694 42.84715595 32 50 C30.68 50 29.36 50 28 50 C27.55011719 49.19820312 27.10023438 48.39640625 26.63671875 47.5703125 C22.71272126 40.63450932 18.67814137 33.78594537 14.5 27 C11.06476896 21.40934155 7.65872893 15.80627594 4.375 10.125 C3.74335938 9.03445312 3.11171875 7.94390625 2.4609375 6.8203125 C1.24482351 4.47262721 0.46135697 2.58110521 0 0 Z " fill="#3A830E" transform="translate(125,99)"/>
<path d="M0 0 C1.485 0.495 1.485 0.495 3 1 C-0.41026491 9.89841215 -5.47386751 17.85313049 -10.6730957 25.79101562 C-13.58332727 30.2643202 -16.1503602 34.86108519 -18.6484375 39.578125 C-20.51920389 42.93036535 -22.68748694 45.93932095 -25 49 C-26.32 48.67 -27.64 48.34 -29 48 C-31.21238736 37.7889814 -31.25461034 31.29661829 -26 22 C-25.484375 21.05125 -24.96875 20.1025 -24.4375 19.125 C-18.33232139 11.29784794 -8.70552645 4.65089769 0 0 Z " fill="#428917" transform="translate(99,99)"/>
<path d="M0 0 C0.66 0 1.32 0 2 0 C7.71161693 6.45251064 11.19099099 12.92466748 10.91796875 21.609375 C10.55331415 25.78745144 9.95368652 29.91277205 9 34 C7.68 34 6.36 34 5 34 C3.72710095 31.79283537 2.4566395 29.58432515 1.1875 27.375 C0.83107422 26.75753906 0.47464844 26.14007813 0.10742188 25.50390625 C-2.05913172 21.72734494 -4.0904299 17.91552228 -6 14 C-5.34 14 -4.68 14 -4 14 C-4 14.66 -4 15.32 -4 16 C-1.83656989 13.96731398 -1.83656989 13.96731398 0 11 C2 11 4 11 6 11 C6 10.34 6 9.68 6 9 C5.01 9 4.02 9 3 9 C2.87625 8.195625 2.7525 7.39125 2.625 6.5625 C2.41875 5.716875 2.2125 4.87125 2 4 C1.34 3.67 0.68 3.34 0 3 C0 2.01 0 1.02 0 0 Z " fill="#498C20" transform="translate(148,115)"/>
<path d="M0 0 C3.63 0 7.26 0 11 0 C10.01 0.99 9.02 1.98 8 3 C7.67 3.99 7.34 4.98 7 6 C5.03696582 7.07074592 3.0302589 8.06295743 1 9 C0.175 9.515625 -0.65 10.03125 -1.5 10.5625 C-6.4411511 13.40366188 -11.38353404 14.32602409 -17 15 C-16.690625 14.46375 -16.38125 13.9275 -16.0625 13.375 C-14.82172561 10.6015043 -14.4090325 7.99957163 -14 5 C-14.99 4.67 -15.98 4.34 -17 4 C-16.67 3.34 -16.34 2.68 -16 2 C-10.72 2 -5.44 2 0 2 C0 1.34 0 0.68 0 0 Z " fill="#38840A" transform="translate(87,92)"/>
<path d="M0 0 C6.46101058 -0.98319726 9.70278418 1.40616853 14.86328125 5.17578125 C17 7 17 7 19 10 C18.236875 10.0825 17.47375 10.165 16.6875 10.25 C13.94280228 10.79406349 13.94280228 10.79406349 12.1875 12.6875 C10.6917679 15.60024146 10.77977244 17.76999584 11 21 C10.34 21 9.68 21 9 21 C7.55667987 18.87781764 6.2313612 16.77294266 4.9375 14.5625 C2.76054574 10.55609169 2.76054574 10.55609169 0 7 C-0.04092937 4.66702567 -0.04241723 2.33294775 0 0 Z " fill="#F59938" transform="translate(63,152)"/>
<path d="M0 0 C0.99 0 1.98 0 3 0 C4.125 6.625 4.125 6.625 3 10 C2.01 10.33 1.02 10.66 0 11 C-0.495 11.825 -0.99 12.65 -1.5 13.5 C-3 16 -3 16 -6 17 C-7.70840281 15.36587557 -8.93453047 14.13093906 -10 12 C-11.32 11.67 -12.64 11.34 -14 11 C-13.67 7.7 -13.34 4.4 -13 1 C-11.02 1.495 -11.02 1.495 -9 2 C-9 2.66 -9 3.32 -9 4 C-6.66834966 4.33498301 -6.66834966 4.33498301 -4 4 C-2.62689293 2.70766393 -1.28965176 1.37562854 0 0 Z " fill="#3B7F11" transform="translate(118,102)"/>
<path d="M0 0 C0.66 0 1.32 0 2 0 C2 0.99 2 1.98 2 3 C0.32105637 4.64387431 -1.49931268 5.98432779 -3.37109375 7.40234375 C-5.2400824 9.2354765 -5.60874966 10.44860693 -6 13 C-6.66 13 -7.32 13 -8 13 C-8.33 14.65 -8.66 16.3 -9 18 C-9.66 18 -10.32 18 -11 18 C-10.67 18.66 -10.34 19.32 -10 20 C-8.35 20 -6.7 20 -5 20 C-5 19.34 -5 18.68 -5 18 C-4.36191406 17.82984375 -3.72382813 17.6596875 -3.06640625 17.484375 C-2.24011719 17.24203125 -1.41382813 16.9996875 -0.5625 16.75 C0.26121094 16.51796875 1.08492187 16.2859375 1.93359375 16.046875 C4.19995468 15.19229321 4.19995468 15.19229321 4.78515625 12.890625 C4.85605469 12.26671875 4.92695313 11.6428125 5 11 C7.475 11.495 7.475 11.495 10 12 C10 12.66 10 13.32 10 14 C8.390625 15.2890625 8.390625 15.2890625 6.25 16.625 C5.55390625 17.07101563 4.8578125 17.51703125 4.140625 17.9765625 C2 19 2 19 -2 19 C-2 19.66 -2 20.32 -2 21 C-2.78246094 21.42152344 -3.56492188 21.84304687 -4.37109375 22.27734375 C-5.38300781 22.82519531 -6.39492187 23.37304688 -7.4375 23.9375 C-8.44683594 24.48277344 -9.45617187 25.02804688 -10.49609375 25.58984375 C-12.86670493 26.77699468 -12.86670493 26.77699468 -14 28 C-15.66617115 28.04063832 -17.33388095 28.042721 -19 28 C-18.39889791 23.89246904 -16.09853324 20.92358714 -13.75 17.625 C-13.17572266 16.79742187 -13.17572266 16.79742187 -12.58984375 15.953125 C-9.90923858 12.13393502 -7.12356062 8.46945828 -4 5 C-3.34 5 -2.68 5 -2 5 C-1.34 3.35 -0.68 1.7 0 0 Z " fill="#498528" transform="translate(141,52)"/>
<path d="M0 0 C-0.66 3.63 -1.32 7.26 -2 11 C-3.32 11.33 -4.64 11.66 -6 12 C-6.66 12.53625 -7.32 13.0725 -8 13.625 C-10 15 -10 15 -12.125 14.875 C-14 14 -14 14 -16 11 C-15.67 10.34 -15.34 9.68 -15 9 C-15.99 9 -16.98 9 -18 9 C-18.33 7.02 -18.66 5.04 -19 3 C-18.67 3.66 -18.34 4.32 -18 5 C-16.35 4.67 -14.7 4.34 -13 4 C-13 4.99 -13 5.98 -13 7 C-12.278125 6.236875 -11.55625 5.47375 -10.8125 4.6875 C-4.37931034 -1.45977011 -4.37931034 -1.45977011 0 0 Z " fill="#378206" transform="translate(125,129)"/>
<path d="M0 0 C0.99 0 1.98 0 3 0 C4.8991942 23.23121471 4.8991942 23.23121471 3.05078125 26.8671875 C-0.12095197 33.30498059 0.6904538 41.90581244 0.48242188 48.96875 C0.44826172 49.82984375 0.41410156 50.6909375 0.37890625 51.578125 C0.3538501 52.35575195 0.32879395 53.13337891 0.30297852 53.93457031 C0 56 0 56 -2 59 C-2.1559158 45.94746581 -1.66880341 32.97131139 -1 19.9375 C-0.90326275 17.99155546 -0.80690645 16.04559195 -0.7109375 14.09960938 C-0.47833293 9.39951006 -0.24063257 4.69969486 0 0 Z " fill="#77A456" transform="translate(112,19)"/>
<path d="M0 0 C4.28975129 6.43462693 5.52341949 12.88891506 6.1875 20.4375 C6.3102832 21.62956055 6.3102832 21.62956055 6.43554688 22.84570312 C6.95888087 28.25055594 7.07064742 33.5710176 7 39 C5.12011719 38.69750977 5.12011719 38.69750977 3 38 C1.56357954 35.63808099 0.38749171 33.43461163 -0.75 30.9375 C-1.06582031 30.27427734 -1.38164063 29.61105469 -1.70703125 28.92773438 C-2.48411278 27.29115358 -3.24375767 25.64631405 -4 24 C-1.25002779 22.5268006 0.89619499 21.77595125 4 21 C3.67 17.04 3.34 13.08 3 9 C2.34 9 1.68 9 1 9 C0.67 6.03 0.34 3.06 0 0 Z " fill="#5B9538" transform="translate(101,34)"/>
<path d="M0 0 C5.76649384 4.77795204 9.51401024 11.4316963 10.3125 18.9375 C10.3125 21.31468237 10.23086209 23.63494612 10 26 C5.85388422 25.60513183 3.21321082 24.69114892 -0.15234375 22.25 C-4.82175141 19.0909927 -9.96024617 16.51987691 -15 14 C-15 13.34 -15 12.68 -15 12 C-10.05 12.99 -10.05 12.99 -5 14 C-5 14.99 -5 15.98 -5 17 C-2.525 17.99 -2.525 17.99 0 19 C0 18.34 0 17.68 0 17 C0.99 17.33 1.98 17.66 3 18 C2.67 18.99 2.34 19.98 2 21 C3.65 20.34 5.3 19.68 7 19 C6.59639243 13.75310158 5.94225829 11.4644088 2 8 C0.06470585 4.90352936 0 3.86069323 0 0 Z " fill="#43821D" transform="translate(197,112)"/>
<path d="M0 0 C10.70440452 10.07473366 10.70440452 10.07473366 12 17 C12.66 17 13.32 17 14 17 C14 18.65 14 20.3 14 22 C9.63425206 21.40981556 6.52282919 19.7973902 2.75 17.5625 C1.69296875 16.94503906 0.6359375 16.32757813 -0.453125 15.69140625 C-3 14 -3 14 -4 12 C-2.68 12 -1.36 12 0 12 C0 12.66 0 13.32 0 14 C2.31 14 4.62 14 7 14 C6.34 13.34 5.68 12.68 5 12 C4.67 11.01 4.34 10.02 4 9 C4.33 8.34 4.66 7.68 5 7 C4.34 7 3.68 7 3 7 C3 7.66 3 8.32 3 9 C1.35 8.67 -0.3 8.34 -2 8 C-1.34 7.67 -0.68 7.34 0 7 C0 4.69 0 2.38 0 0 Z " fill="#488A23" transform="translate(90,58)"/>
<path d="M0 0 C2.31 0 4.62 0 7 0 C7.268125 0.804375 7.53625 1.60875 7.8125 2.4375 C8.204375 3.283125 8.59625 4.12875 9 5 C9.99 5.33 10.98 5.66 12 6 C11.835 6.556875 11.67 7.11375 11.5 7.6875 C10.89812972 10.03352883 10.89812972 10.03352883 11.0625 12.625 C11 15 11 15 9 17 C6.67316333 16.77482226 5.15275947 16.0865637 3.125 14.9375 C1.6750402 12.44034701 2.12775253 11.56120261 2.8125 8.8125 C3.204375 7.554375 3.59625 6.29625 4 5 C3.01 5 2.02 5 1 5 C1.33 5.99 1.66 6.98 2 8 C1.34 8 0.68 8 0 8 C-0.79953138 4.71303767 -1.09658936 3.28976808 0 0 Z " fill="#FA9731" transform="translate(30,150)"/>
<path d="M0 0 C0.33 0 0.66 0 1 0 C1.33 2.31 1.66 4.62 2 7 C2.33 5.35 2.66 3.7 3 2 C5 2 7 2 9 2 C9 2.99 9 3.98 9 5 C8.01 5 7.02 5 6 5 C6 7.31 6 9.62 6 12 C5.34 12 4.68 12 4 12 C3.67 13.65 3.34 15.3 3 17 C2.34 17 1.68 17 1 17 C0.67 18.32 0.34 19.64 0 21 C-2 20 -2 20 -3 17 C-2.96359234 14.85194835 -2.85041224 12.70467436 -2.6875 10.5625 C-2.60886719 9.42941406 -2.53023438 8.29632813 -2.44921875 7.12890625 C-2.0384724 4.26796862 -1.4744484 2.44938978 0 0 Z " fill="#3C850E" transform="translate(123,46)"/>
<path d="M0 0 C1.9451 2.91765 2.45276317 4.62537285 3 8 C3.99 8.33 4.98 8.66 6 9 C6 9.66 6 10.32 6 11 C6.99 11 7.98 11 9 11 C9.103125 11.61875 9.20625 12.2375 9.3125 12.875 C9.87525373 15.36526484 9.87525373 15.36526484 13 17 C14.65 15.68 16.3 14.36 18 13 C18.66 13.33 19.32 13.66 20 14 C18.7934375 14.8971875 18.7934375 14.8971875 17.5625 15.8125 C14.77672016 17.80947276 14.77672016 17.80947276 14 21 C13.34 21 12.68 21 12 21 C11.278125 19.989375 10.55625 18.97875 9.8125 17.9375 C8.57539483 16.23809045 8.57539483 16.23809045 7 15 C3.2499712 14.97475672 3.2499712 14.97475672 0 16 C0.33 17.98 0.66 19.96 1 22 C-4.73310689 24.39748106 -9.80481527 25.58411954 -16 26 C-11.05655429 23.46980628 -6.64065066 21.66819702 -1 22 C-1.33 19.36 -1.66 16.72 -2 14 C-0.68 13.34 0.64 12.68 2 12 C1.67 10.948125 1.34 9.89625 1 8.8125 C0.16033218 5.61126643 -0.19750904 3.2588992 0 0 Z " fill="#6BA045" transform="translate(101,127)"/>
<path d="M0 0 C0.99 0.33 1.98 0.66 3 1 C3 3.64 3 6.28 3 9 C-1.1217079 10.99840383 -4.4402752 11.33775739 -9 11 C-9.99 10.34 -10.98 9.68 -12 9 C-12.1875 5.875 -12.1875 5.875 -12 3 C-8.62537285 3.54723683 -6.91765 4.0549 -4 6 C-3.34 4.68 -2.68 3.36 -2 2 C-1.34 2 -0.68 2 0 2 C0 1.34 0 0.68 0 0 Z " fill="#358208" transform="translate(119,91)"/>
<path d="M0 0 C1.22589844 0.29197266 1.22589844 0.29197266 2.4765625 0.58984375 C3.41628906 0.82380859 3.41628906 0.82380859 4.375 1.0625 C4.125 3.4375 4.125 3.4375 3.375 6.0625 C0.47057968 8.24081524 -2.07624947 8.25965281 -5.625 8.0625 C-5.625 8.7225 -5.625 9.3825 -5.625 10.0625 C-7.275 10.3925 -8.925 10.7225 -10.625 11.0625 C-10.955 10.0725 -11.285 9.0825 -11.625 8.0625 C-10.965 7.7325 -10.305 7.4025 -9.625 7.0625 C-8.97286708 5.03786745 -8.97286708 5.03786745 -8.625 3.0625 C-7.965 3.0625 -7.305 3.0625 -6.625 3.0625 C-6.625 2.0725 -6.625 1.0825 -6.625 0.0625 C-3.99249612 -1.25375194 -2.82320944 -0.68563658 0 0 Z M-0.625 1.0625 C0.375 3.0625 0.375 3.0625 0.375 3.0625 Z " fill="#358406" transform="translate(141.625,61.9375)"/>
<path d="M0 0 C0.45732667 5.71658336 -0.47726246 8.48649253 -4 13 C-5 11 -5 11 -5 7 C-7.31 6.67 -9.62 6.34 -12 6 C-12.33 6.66 -12.66 7.32 -13 8 C-13.99 8.33 -14.98 8.66 -16 9 C-16.309375 9.66 -16.61875 10.32 -16.9375 11 C-18 13 -18 13 -20.125 13.75 C-21.053125 13.87375 -21.053125 13.87375 -22 14 C-21.67 13.01 -21.34 12.02 -21 11 C-20.34 11 -19.68 11 -19 11 C-18.62681641 10.10861328 -18.62681641 10.10861328 -18.24609375 9.19921875 C-16.81934287 6.68115999 -15.39572921 5.50267908 -13.0625 3.8125 C-12.02802734 3.04873047 -12.02802734 3.04873047 -10.97265625 2.26953125 C-7.30621659 -0.09005863 -4.24889008 -0.09441978 0 0 Z " fill="#F29E48" transform="translate(164,152)"/>
<path d="M0 0 C2.31 0 4.62 0 7 0 C7 0.66 7 1.32 7 2 C8.32 2 9.64 2 11 2 C11.33 1.34 11.66 0.68 12 0 C12.495 1.98 12.495 1.98 13 4 C-12.41 3.67 -37.82 3.34 -64 3 C-64 2.67 -64 2.34 -64 2 C-42.88 2 -21.76 2 0 2 C0 1.34 0 0.68 0 0 Z " fill="#317B02" transform="translate(89,82)"/>
<path d="M0 0 C0.96516243 3.00272755 1.22393475 5.04215769 0 8 C-0.99 8.33 -1.98 8.66 -3 9 C-3 9.66 -3 10.32 -3 11 C-3.99 11 -4.98 11 -6 11 C-6.40790426 17.33735726 -6.40790426 17.33735726 -4 23 C-3.01904252 24.01868662 -2.02297922 25.02351983 -1 26 C-1 26.33 -1 26.66 -1 27 C-4.375 27.125 -4.375 27.125 -8 27 C-10 25 -10 25 -10.22265625 22.78515625 C-9.74280716 14.62772178 -6.76255165 9.51138701 -2 3 C-1.34 2.01 -0.68 1.02 0 0 Z " fill="#F4A641" transform="translate(131,178)"/>
<path d="M0 0 C1.98 0 3.96 0 6 0 C6 1.65 6 3.3 6 5 C8.63904371 6.41377341 11.07120629 7.37240135 14 8 C14 7.01 14 6.02 14 5 C14.66 5 15.32 5 16 5 C16 4.34 16 3.68 16 3 C16.99 3 17.98 3 19 3 C19 3.66 19 4.32 19 5 C18.34 5 17.68 5 17 5 C17.33 6.32 17.66 7.64 18 9 C17.01 9.495 17.01 9.495 16 10 C17.2375 10.680625 17.2375 10.680625 18.5 11.375 C19.325 11.91125 20.15 12.4475 21 13 C21 13.66 21 14.32 21 15 C21.99 15 22.98 15 24 15 C24 15.66 24 16.32 24 17 C25.32 17.33 26.64 17.66 28 18 C25 19 25 19 21.9609375 17.62890625 C20.75780019 16.95386484 19.56282985 16.26412706 18.375 15.5625 C17.75270508 15.20212646 17.13041016 14.84175293 16.48925781 14.47045898 C11.74951398 11.64144737 7.65926624 8.39640047 3.671875 4.56640625 C2.0695641 2.91595766 2.0695641 2.91595766 0 2 C0 1.34 0 0.68 0 0 Z " fill="#F89537" transform="translate(44,177)"/>
<path d="M0 0 C1 1 1 1 1.0625 3.109375 C1.041875 3.98078125 1.02125 4.8521875 1 5.75 C0.96475522 8.51867314 0.96794014 10.85394952 1.5625 13.5625 C2.25432094 17.41693097 1.54546641 21.14816799 1 25 C-0.11375 25.45375 -1.2275 25.9075 -2.375 26.375 C-5.96199008 27.72465986 -5.96199008 27.72465986 -8 30 C-9.9375 29.875 -9.9375 29.875 -12 29 C-13.75 26.9375 -13.75 26.9375 -15 25 C-14.401875 25.33 -13.80375 25.66 -13.1875 26 C-10.94613529 27.20787988 -10.94613529 27.20787988 -8 27 C-7.34 26.505 -6.68 26.01 -6 25.5 C-4 24 -4 24 -1 24 C-0.67 20.04 -0.34 16.08 0 12 C-1.98 12.33 -3.96 12.66 -6 13 C-5.67 12.34 -5.34 11.68 -5 11 C-4.01 11 -3.02 11 -2 11 C-2 7.7 -2 4.4 -2 1 C-4.71224618 2.61268692 -7.37352812 4.24901874 -10 6 C-10.66 4.68 -11.32 3.36 -12 2 C-11.01 2.33 -10.02 2.66 -9 3 C-8.62875 2.505 -8.2575 2.01 -7.875 1.5 C-5.23298326 -0.61361339 -3.28862853 -0.2859677 0 0 Z " fill="#7BAD5B" transform="translate(123,101)"/>
<path d="M0 0 C1.32 0 2.64 0 4 0 C4 2.64 4 5.28 4 8 C4.99 8.33 5.98 8.66 7 9 C7 8.34 7 7.68 7 7 C7.66 7 8.32 7 9 7 C9.144375 7.598125 9.28875 8.19625 9.4375 8.8125 C9.8872439 10.56150404 10.42892341 12.28677023 11 14 C8.69 14 6.38 14 4 14 C4 13.34 4 12.68 4 12 C2.35 12.33 0.7 12.66 -1 13 C-1.66 11.35 -2.32 9.7 -3 8 C-1.68 7.67 -0.36 7.34 1 7 C1 6.34 1 5.68 1 5 C0.34 5 -0.32 5 -1 5 C-0.67 3.35 -0.34 1.7 0 0 Z " fill="#368107" transform="translate(86,58)"/>
<path d="M0 0 C0.33 0.66 0.66 1.32 1 2 C-0.26457031 2.03867187 -0.26457031 2.03867187 -1.5546875 2.078125 C-2.65039062 2.13484375 -3.74609375 2.1915625 -4.875 2.25 C-5.96554688 2.29640625 -7.05609375 2.3428125 -8.1796875 2.390625 C-11.1332065 2.68846128 -11.1332065 2.68846128 -12.3828125 5.046875 C-12.58648437 5.69140625 -12.79015625 6.3359375 -13 7 C-13.66 7 -14.32 7 -15 7 C-14.01 8.32 -13.02 9.64 -12 11 C-12.33 11.66 -12.66 12.32 -13 13 C-13.7425 12.38125 -14.485 11.7625 -15.25 11.125 C-17.48801188 9.39562719 -19.43739987 8.13893339 -22 7 C-22 6.01 -22 5.02 -22 4 C-14.38989953 0.56799391 -8.33737789 -0.14570175 0 0 Z " fill="#518B31" transform="translate(59,36)"/>
<path d="M0 0 C0 0.99 0 1.98 0 3 C-1.65 3 -3.3 3 -5 3 C-5 3.99 -5 4.98 -5 6 C-4.34 6 -3.68 6 -3 6 C-3 6.99 -3 7.98 -3 9 C-4.98 9 -6.96 9 -9 9 C-9 8.01 -9 7.02 -9 6 C-9.66 6 -10.32 6 -11 6 C-11.33 6.99 -11.66 7.98 -12 9 C-12.66 9 -13.32 9 -14 9 C-14 9.66 -14 10.32 -14 11 C-14.99 10.67 -15.98 10.34 -17 10 C-16.34 10 -15.68 10 -15 10 C-14.9071875 9.1646875 -14.9071875 9.1646875 -14.8125 8.3125 C-13.6391063 4.972841 -11.65553186 3.28499253 -9 1 C-6.02639927 -0.2080253 -3.18760955 -0.08854471 0 0 Z " fill="#FA972B" transform="translate(202,147)"/>
<path d="M0 0 C0.8971875 0.5259375 0.8971875 0.5259375 1.8125 1.0625 C1.8125 2.0525 1.8125 3.0425 1.8125 4.0625 C-0.6625 3.0725 -0.6625 3.0725 -3.1875 2.0625 C-3.1875 4.0425 -3.1875 6.0225 -3.1875 8.0625 C1.2675 9.0525 1.2675 9.0525 5.8125 10.0625 C4.8225 11.0525 3.8325 12.0425 2.8125 13.0625 C2.4825 13.0625 2.1525 13.0625 1.8125 13.0625 C1.4825 13.7225 1.1525 14.3825 0.8125 15.0625 C0.379375 14.588125 -0.05375 14.11375 -0.5 13.625 C-2.21059613 11.82563043 -2.21059613 11.82563043 -5.1875 11.0625 C-5.1875 13.0425 -5.1875 15.0225 -5.1875 17.0625 C-5.5175 17.0625 -5.8475 17.0625 -6.1875 17.0625 C-6.8125 13.6875 -6.8125 13.6875 -7.1875 10.0625 C-6.5275 9.4025 -5.8675 8.7425 -5.1875 8.0625 C-4.94537127 6.08121492 -4.94537127 6.08121492 -5.0625 3.9375 C-5.124375 2.019375 -5.124375 2.019375 -5.1875 0.0625 C-2.1875 -0.9375 -2.1875 -0.9375 0 0 Z " fill="#5B913A" transform="translate(110.1875,91.9375)"/>
<path d="M0 0 C-1 3 -1 3 -4.0625 4.6875 C-5.031875 5.120625 -6.00125 5.55375 -7 6 C-7 4.68 -7 3.36 -7 2 C-9.31 1.67 -11.62 1.34 -14 1 C-14 1.66 -14 2.32 -14 3 C-20.6 3.33 -27.2 3.66 -34 4 C-34 3.34 -34 2.68 -34 2 C-22.90321202 -0.454494 -11.30848025 -0.14254387 0 0 Z " fill="#5A8C32" transform="translate(101,91)"/>
<path d="M0 0 C0.33 0 0.66 0 1 0 C1.33828768 4.33296133 1.66973748 8.66642019 2 13 C2.14308594 14.83111328 2.14308594 14.83111328 2.2890625 16.69921875 C2.75214157 22.81847793 3.12273706 28.86314714 3 35 C1.68 34.34 0.36 33.68 -1 33 C-1.10611887 21.94005573 -1.00708069 11.0239368 0 0 Z " fill="#5E9837" transform="translate(114,34)"/>
<path d="M0 0 C0.79921875 0.01804688 1.5984375 0.03609375 2.421875 0.0546875 C3.02515625 0.07789063 3.6284375 0.10109375 4.25 0.125 C5.13336837 2.5917645 5.3812406 3.76359372 4.47265625 6.265625 C4.08980469 6.96171875 3.70695313 7.6578125 3.3125 8.375 C2.93222656 9.08140625 2.55195313 9.7878125 2.16015625 10.515625 C1.85980469 11.04671875 1.55945313 11.5778125 1.25 12.125 C0.59 12.125 -0.07 12.125 -0.75 12.125 C-0.75 10.805 -0.75 9.485 -0.75 8.125 C-1.41 8.125 -2.07 8.125 -2.75 8.125 C-2.75 7.135 -2.75 6.145 -2.75 5.125 C-1.1 5.125 0.55 5.125 2.25 5.125 C2.25 4.135 2.25 3.145 2.25 2.125 C0.8108866 2.40859887 -0.62625518 2.70221399 -2.0625 3 C-2.86300781 3.16242188 -3.66351563 3.32484375 -4.48828125 3.4921875 C-7.00301118 4.06978999 -7.00301118 4.06978999 -9.75 6.125 C-9.5 4.25 -9.5 4.25 -8.75 2.125 C-5.77602316 0.21315774 -3.49458497 -0.10278191 0 0 Z " fill="#ECA75E" transform="translate(199.75,144.875)"/>
<path d="M0 0 C0.33 0 0.66 0 1 0 C1 9.57 1 19.14 1 29 C0.01 28.67 -0.98 28.34 -2 28 C-1.01 26.515 -1.01 26.515 0 25 C-0.66 25 -1.32 25 -2 25 C-2.05786668 21.20839703 -2.09355054 17.41690689 -2.125 13.625 C-2.14175781 12.54476562 -2.15851563 11.46453125 -2.17578125 10.3515625 C-2.18222656 9.3203125 -2.18867187 8.2890625 -2.1953125 7.2265625 C-2.20578613 6.27346191 -2.21625977 5.32036133 -2.22705078 4.33837891 C-2 2 -2 2 0 0 Z " fill="#307F02" transform="translate(114,53)"/>
<path d="M0 0 C-0.33 1.32 -0.66 2.64 -1 4 C-3.31 4 -5.62 4 -8 4 C-8.33 5.65 -8.66 7.3 -9 9 C-9.99 8.34 -10.98 7.68 -12 7 C-12 6.34 -12 5.68 -12 5 C-13.32 4.67 -14.64 4.34 -16 4 C-16 3.34 -16 2.68 -16 2 C-13.89829344 1.46932659 -11.79352402 0.95077143 -9.6875 0.4375 C-7.92986328 0.00244141 -7.92986328 0.00244141 -6.13671875 -0.44140625 C-3 -1 -3 -1 0 0 Z " fill="#368009" transform="translate(101,151)"/>
<path d="M0 0 C2 2 2 2 2.046875 4.3125 C1.94890625 5.199375 1.8509375 6.08625 1.75 7 C1.61851563 8.3303125 1.61851563 8.3303125 1.484375 9.6875 C1 12 1 12 -1 14 C-0.67 10.7 -0.34 7.4 0 4 C-5.02438208 5.25609552 -6.96034237 6.87475036 -10 11 C-10.66 11 -11.32 11 -12 11 C-12.33 9.68 -12.66 8.36 -13 7 C-12.2575 6.566875 -11.515 6.13375 -10.75 5.6875 C-8.04939831 4.10391176 -8.04939831 4.10391176 -5.9375 2.375 C-3.89369133 0.92455514 -2.49187366 0.24918737 0 0 Z " fill="#45831D" transform="translate(124,125)"/>
<path d="M0 0 C4.53519409 0.53355225 7.3247575 2.36341299 11 5 C11.99 5.66 12.98 6.32 14 7 C14 7.66 14 8.32 14 9 C12.125 9.625 12.125 9.625 10 10 C9.34 9.34 8.68 8.68 8 8 C8.66 8 9.32 8 10 8 C9.67 7.34 9.34 6.68 9 6 C7.68 6 6.36 6 5 6 C5.66 7.98 6.32 9.96 7 12 C4.04485124 9.24865461 1.8475191 6.60266225 0 3 C0 2.01 0 1.02 0 0 Z " fill="#5A9335" transform="translate(125,99)"/>
<path d="M0 0 C3.27742098 3.10026309 5.93104837 5.97098894 8 10 C8 10.66 8 11.32 8 12 C8.66 12 9.32 12 10 12 C10 12.99 10 13.98 10 15 C8.68 14.67 7.36 14.34 6 14 C6 12.68 6 11.36 6 10 C3.69 10 1.38 10 -1 10 C-1 8.02 -1 6.04 -1 4 C-0.34 4 0.32 4 1 4 C0.67 2.68 0.34 1.36 0 0 Z " fill="#F5A043" transform="translate(91,172)"/>
<path d="M0 0 C5.15171623 -0.09038099 9.91913204 0.15318867 15 1 C15 1.33 15 1.66 15 2 C12.03 2 9.06 2 6 2 C7.60736248 5.21472497 10.940928 6.1237161 14.0625 7.625 C14.72572266 7.94984375 15.38894531 8.2746875 16.07226562 8.609375 C17.71221247 9.41165115 19.35577492 10.2065288 21 11 C18.23798271 12.10869708 17.21378849 12.08880942 14.4140625 10.92578125 C13.49367187 10.39339844 12.57328125 9.86101562 11.625 9.3125 C10.66207031 8.75691406 9.69914063 8.20132813 8.70703125 7.62890625 C7.81371094 7.09136719 6.92039063 6.55382812 6 6 C5.32324219 5.59652344 4.64648438 5.19304687 3.94921875 4.77734375 C2.3125 3.75 2.3125 3.75 0 2 C0 1.34 0 0.68 0 0 Z " fill="#769D61" transform="translate(124,90)"/>
<path d="M0 0 C-0.33 1.32 -0.66 2.64 -1 4 C-1.66 4 -2.32 4 -3 4 C-3.19335938 4.61488281 -3.38671875 5.22976562 -3.5859375 5.86328125 C-3.84632812 6.67152344 -4.10671875 7.47976562 -4.375 8.3125 C-4.63023438 9.11300781 -4.88546875 9.91351563 -5.1484375 10.73828125 C-6 13 -6 13 -8 16 C-8.66 16 -9.32 16 -10 16 C-10.05391993 14.20866022 -10.09275571 12.41686101 -10.125 10.625 C-10.14820312 9.62726563 -10.17140625 8.62953125 -10.1953125 7.6015625 C-10 5 -10 5 -8 3 C-7.01 4.485 -7.01 4.485 -6 6 C-5.67 5.01 -5.34 4.02 -5 3 C-2.44444444 0 -2.44444444 0 0 0 Z " fill="#659448" transform="translate(129,60)"/>
<path d="M0 0 C0.99 0.495 0.99 0.495 2 1 C1.67 1.99 1.34 2.98 1 4 C1.58007812 4.04898438 2.16015625 4.09796875 2.7578125 4.1484375 C7.43923092 4.59649405 11.57485459 5.298021 16 7 C15.64950425 10.24208567 15.43778819 11.61527704 12.9375 13.8125 C12.298125 14.204375 11.65875 14.59625 11 15 C11 14.01 11 13.02 11 12 C10.34 11.34 9.68 10.68 9 10 C8.375 7.875 8.375 7.875 8 6 C5.36 5.67 2.72 5.34 0 5 C0 3.35 0 1.7 0 0 Z " fill="#619B3F" transform="translate(126,145)"/>
<path d="M0 0 C0 0.66 0 1.32 0 2 C-2.54065934 3.43930464 -5.08248022 4.87648839 -7.625 6.3125 C-8.33785156 6.71662109 -9.05070312 7.12074219 -9.78515625 7.53710938 C-13.80607893 9.80579511 -17.84794508 11.9763644 -22 14 C-22 13.34 -22 12.68 -22 12 C-21.34 11.67 -20.68 11.34 -20 11 C-20 9.68 -20 8.36 -20 7 C-17.36 7 -14.72 7 -12 7 C-12 6.34 -12 5.68 -12 5 C-11.360625 4.87625 -10.72125 4.7525 -10.0625 4.625 C-9.381875 4.41875 -8.70125 4.2125 -8 4 C-7.67 3.34 -7.34 2.68 -7 2 C-2.66666667 0 -2.66666667 0 0 0 Z " fill="#598F39" transform="translate(45,124)"/>
<path d="M0 0 C0.96099609 0.6496875 0.96099609 0.6496875 1.94140625 1.3125 C7.22684304 4.71534455 10.67477462 6.8250294 17 6 C17.33 5.34 17.66 4.68 18 4 C18 4.99 18 5.98 18 7 C17.34 7 16.68 7 16 7 C16 7.66 16 8.32 16 9 C5.44191344 9.3690205 5.44191344 9.3690205 1 7 C0.67 4.69 0.34 2.38 0 0 Z " fill="#EEA355" transform="translate(55,170)"/>
<path d="M0 0 C0.66 0.33 1.32 0.66 2 1 C2.09688221 6.44693314 2.12862175 11.63904667 1 17 C0.34 17 -0.32 17 -1 17 C-1.33 17.66 -1.66 18.32 -2 19 C-2 18.34 -2 17.68 -2 17 C-2.66 17 -3.32 17 -4 17 C-5.25 10.375 -5.25 10.375 -3 7 C-3 7.99 -3 8.98 -3 10 C-2.34 10 -1.68 10 -1 10 C-1.33 10.99 -1.66 11.98 -2 13 C-1.34 13.33 -0.68 13.66 0 14 C0 9.38 0 4.76 0 0 Z " fill="#447A23" transform="translate(115,68)"/>
<path d="M0 0 C2.63662075 0.85690174 3.75689748 1.70242853 5.5 3.8125 C5.17 4.4725 4.84 5.1325 4.5 5.8125 C1.53 5.3175 1.53 5.3175 -1.5 4.8125 C-2.16 6.1325 -2.82 7.4525 -3.5 8.8125 C-5.5 6.8125 -5.5 6.8125 -5.8125 4.3125 C-5.709375 3.4875 -5.60625 2.6625 -5.5 1.8125 C-2.5 -0.1875 -2.5 -0.1875 0 0 Z " fill="#37800B" transform="translate(106.5,141.1875)"/>
<path d="M0 0 C1.9587043 0.14076315 3.91696093 0.2877676 5.875 0.4375 C7.51082031 0.55931641 7.51082031 0.55931641 9.1796875 0.68359375 C12 1 12 1 14 2 C15.53668865 2.22467831 17.07968054 2.40796805 18.625 2.5625 C19.44226563 2.64628906 20.25953125 2.73007813 21.1015625 2.81640625 C21.72804688 2.87699219 22.35453125 2.93757812 23 3 C23.33 3.99 23.66 4.98 24 6 C18.7694488 6.20352339 14.19697335 5.53064327 9.1875 4.125 C8.52041016 3.95097656 7.85332031 3.77695313 7.16601562 3.59765625 C4.13717827 2.77244325 2.25564838 2.25564838 0 0 Z " fill="#E7A35C" transform="translate(80,199)"/>
<path d="M0 0 C2 3 2 3 2 5 C2.66 5 3.32 5 4 5 C4 5.99 4 6.98 4 8 C2.68 8 1.36 8 0 8 C0 8.66 0 9.32 0 10 C-0.99 10 -1.98 10 -3 10 C-3 9.34 -3 8.68 -3 8 C-3.66 8 -4.32 8 -5 8 C-4.75 5.125 -4.75 5.125 -4 2 C-1.9375 0.625 -1.9375 0.625 0 0 Z " fill="#F79233" transform="translate(176,167)"/>
<path d="M0 0 C7.80123092 -0.90014203 13.39496739 1.97826904 20 6 C21.85546875 7.69921875 21.85546875 7.69921875 23 9 C22.67 9.66 22.34 10.32 22 11 C21.4225 10.360625 20.845 9.72125 20.25 9.0625 C18.01937599 7.01776132 16.92563609 6.41794801 14 6 C14 5.34 14 4.68 14 4 C13.113125 3.855625 12.22625 3.71125 11.3125 3.5625 C8.52882354 3.08980022 5.76516243 2.56929815 3 2 C2.67 3.32 2.34 4.64 2 6 C0 3 0 3 0 0 Z " fill="#77A756" transform="translate(73,15)"/>
<path d="M0 0 C4.95 0.99 4.95 0.99 10 2 C10 2.99 10 3.98 10 5 C12.475 5.99 12.475 5.99 15 7 C15 6.34 15 5.68 15 5 C15.99 5.33 16.98 5.66 18 6 C17.67 7.32 17.34 8.64 17 10 C17.99 10.33 18.98 10.66 20 11 C19.67 11.66 19.34 12.32 19 13 C18.236875 12.46375 17.47375 11.9275 16.6875 11.375 C11.39114516 7.83139568 5.6958796 4.8479398 0 2 C0 1.34 0 0.68 0 0 Z " fill="#5A963B" transform="translate(182,124)"/>
<path d="M0 0 C0.66 0 1.32 0 2 0 C2 0.99 2 1.98 2 3 C0.32105637 4.64387431 -1.49931268 5.98432779 -3.37109375 7.40234375 C-5.2400824 9.2354765 -5.60874966 10.44860693 -6 13 C-6.66 13 -7.32 13 -8 13 C-8.061875 13.78375 -8.12375 14.5675 -8.1875 15.375 C-8.5896875 16.674375 -8.5896875 16.674375 -9 18 C-11.5625 19.3125 -11.5625 19.3125 -14 20 C-12.66439842 16.25234185 -11.0073532 13.3836183 -8.5625 10.25 C-7.96566406 9.47140625 -7.36882812 8.6928125 -6.75390625 7.890625 C-5 6 -5 6 -2 5 C-0.78130071 2.49552484 -0.78130071 2.49552484 0 0 Z " fill="#548935" transform="translate(141,52)"/>
<path d="M0 0 C0 0.99 0 1.98 0 3 C-0.33 3.33 -0.66 3.66 -1 4 C-1.23075082 5.34747084 -1.41153063 6.70377565 -1.5625 8.0625 C-1.706875 9.361875 -1.85125 10.66125 -2 12 C-2.99 12.33 -3.98 12.66 -5 13 C-4.67 17.95 -4.34 22.9 -4 28 C-6.91782217 23.62326675 -7.39853954 19.0554698 -6.71875 13.84375 C-5.53287557 8.70496079 -3.78495869 3.78495869 0 0 Z " fill="#6D9F4D" transform="translate(75,119)"/>
<path d="M0 0 C0.66 0 1.32 0 2 0 C2 0.66 2 1.32 2 2 C2.99 2.33 3.98 2.66 5 3 C5 4.65 5 6.3 5 8 C5.99 8 6.98 8 8 8 C8 8.66 8 9.32 8 10 C6.02 10.99 6.02 10.99 4 12 C4 11.34 4 10.68 4 10 C3.01 9.67 2.02 9.34 1 9 C-0.4783226 6.04335481 -0.06032783 3.25770263 0 0 Z " fill="#368304" transform="translate(146,116)"/>
<path d="M0 0 C2 2 2 2 2 5 C2.99 5 3.98 5 5 5 C5 7.31 5 9.62 5 12 C4.34 12 3.68 12 3 12 C3 12.66 3 13.32 3 14 C1.70766393 15.37310707 0.37562854 16.71034824 -1 18 C-1.66 17.67 -2.32 17.34 -3 17 C-1.68 14.69 -0.36 12.38 1 10 C1.66 10 2.32 10 3 10 C3.33 8.68 3.66 7.36 4 6 C2.824375 6.7115625 2.824375 6.7115625 1.625 7.4375 C0.11051322 8.33898023 -1.4235897 9.21179485 -3 10 C-2.67 8.68 -2.34 7.36 -2 6 C-1.34 6 -0.68 6 0 6 C0 4.02 0 2.04 0 0 Z " fill="#6DA54E" transform="translate(116,79)"/>
<path d="M0 0 C2.56616632 3.84924948 2.55097676 6.4349304 3 11 C4.65 10.34 6.3 9.68 8 9 C10.475 12.465 10.475 12.465 13 16 C12.01 16 11.02 16 10 16 C9.34 15.34 8.68 14.68 8 14 C5.67724823 13.59952556 3.34260643 13.2602896 1 13 C0.67 8.71 0.34 4.42 0 0 Z " fill="#579032" transform="translate(102,113)"/>
<path d="M0 0 C2.10633718 1.70828921 2.93801608 2.52148416 3.29296875 5.26171875 C3.25816406 6.06222656 3.22335938 6.86273438 3.1875 7.6875 C3.16042969 8.49574219 3.13335937 9.30398437 3.10546875 10.13671875 C3.07066406 10.75160156 3.03585938 11.36648437 3 12 C1.68 11.67 0.36 11.34 -1 11 C-2.23076923 4.6 -2.23076923 4.6 -1.0625 1.5625 C-0.711875 1.046875 -0.36125 0.53125 0 0 Z " fill="#548F2F" transform="translate(105,61)"/>
<path d="M0 0 C0.8971875 0.309375 0.8971875 0.309375 1.8125 0.625 C-0.1675 1.285 -2.1475 1.945 -4.1875 2.625 C-4.1875 3.615 -4.1875 4.605 -4.1875 5.625 C-8.71131127 7.66801154 -13.35121695 8.63456295 -18.1875 9.625 C-18.1875 8.965 -18.1875 8.305 -18.1875 7.625 C-16.5375 7.295 -14.8875 6.965 -13.1875 6.625 C-13.1875 5.965 -13.1875 5.305 -13.1875 4.625 C-12.64480469 4.43164062 -12.10210937 4.23828125 -11.54296875 4.0390625 C-10.82753906 3.77867188 -10.11210937 3.51828125 -9.375 3.25 C-8.66730469 2.99476562 -7.95960938 2.73953125 -7.23046875 2.4765625 C-0.91335438 -0.15657504 -0.91335438 -0.15657504 0 0 Z " fill="#548833" transform="translate(145.1875,74.375)"/>
<path d="M0 0 C0.84653438 3.0590674 1.24513185 4.99093136 0 8 C-0.99 8.33 -1.98 8.66 -3 9 C-3 9.66 -3 10.32 -3 11 C-3.99 11 -4.98 11 -6 11 C-6.66 13.64 -7.32 16.28 -8 19 C-8.33 19 -8.66 19 -9 19 C-8.55628006 13.41476324 -7.16227295 10.11813163 -3.9375 5.5625 C-3.20402344 4.51191406 -2.47054687 3.46132812 -1.71484375 2.37890625 C-1.14894531 1.59386719 -0.58304688 0.80882812 0 0 Z " fill="#EDAC67" transform="translate(131,178)"/>
<path d="M0 0 C-0.875 6.75 -0.875 6.75 -2 9 C-2.66 9 -3.32 9 -4 9 C-4 8.01 -4 7.02 -4 6 C-4.66 5.67 -5.32 5.34 -6 5 C-5.67 4.34 -5.34 3.68 -5 3 C-6.32 3 -7.64 3 -9 3 C-9 2.34 -9 1.68 -9 1 C-5.92677456 0.08941469 -3.19902639 -0.08886184 0 0 Z " fill="#42801D" transform="translate(153,15)"/>
<path d="M0 0 C1.65 0 3.3 0 5 0 C5 0.66 5 1.32 5 2 C3.26303438 3.5830205 1.45943503 5.09353724 -0.375 6.5625 C-1.37273437 7.36816406 -2.37046875 8.17382812 -3.3984375 9.00390625 C-6 11 -6 11 -8 12 C-7.67 10.68 -7.34 9.36 -7 8 C-6.34 8 -5.68 8 -5 8 C-5 6.35 -5 4.7 -5 3 C-3.35 2.67 -1.7 2.34 0 2 C0 1.34 0 0.68 0 0 Z " fill="#EEA958" transform="translate(178,177)"/>
<path d="M0 0 C5.57142857 5.14285714 5.57142857 5.14285714 6 9 C6.66 9 7.32 9 8 9 C8 10.65 8 12.3 8 14 C4.31245243 13.50168276 2.39509338 12.89932357 0 10 C1.32 10 2.64 10 4 10 C3.525625 8.906875 3.05125 7.81375 2.5625 6.6875 C1.59812191 4.46523745 0.76833172 2.30499515 0 0 Z " fill="#609741" transform="translate(96,66)"/>
<path d="M0 0 C0.99 0.33 1.98 0.66 3 1 C2.67 3.64 2.34 6.28 2 9 C0.35 9 -1.3 9 -3 9 C-3.33 7.35 -3.66 5.7 -4 4 C-3.01 3.67 -2.02 3.34 -1 3 C-0.67 2.01 -0.34 1.02 0 0 Z " fill="#358206" transform="translate(119,103)"/>
<path d="M0 0 C1.65322266 0.01740234 1.65322266 0.01740234 3.33984375 0.03515625 C4.99693359 0.04869141 4.99693359 0.04869141 6.6875 0.0625 C7.54214844 0.07410156 8.39679687 0.08570313 9.27734375 0.09765625 C9.27734375 0.42765625 9.27734375 0.75765625 9.27734375 1.09765625 C8.16359375 1.20078125 7.04984375 1.30390625 5.90234375 1.41015625 C4.70609375 1.63703125 3.50984375 1.86390625 2.27734375 2.09765625 C1.28734375 3.58265625 1.28734375 3.58265625 0.27734375 5.09765625 C-1.38280241 5.46207858 -3.04971689 5.79738508 -4.72265625 6.09765625 C-5.05265625 6.75765625 -5.38265625 7.41765625 -5.72265625 8.09765625 C-6.05265625 7.10765625 -6.38265625 6.11765625 -6.72265625 5.09765625 C-6.06265625 5.09765625 -5.40265625 5.09765625 -4.72265625 5.09765625 C-4.50609375 4.13859375 -4.50609375 4.13859375 -4.28515625 3.16015625 C-3.44274568 0.07131749 -3.30523028 0.11855202 0 0 Z " fill="#348005" transform="translate(50.72265625,37.90234375)"/>
<path d="M0 0 C2.97 0 5.94 0 9 0 C9 0.66 9 1.32 9 2 C7.02 2.66 5.04 3.32 3 4 C3.66 6.64 4.32 9.28 5 12 C2.02473335 9.44977144 0.49877698 6.59706474 -1 3 C-0.67 2.01 -0.34 1.02 0 0 Z " fill="#EAAF64" transform="translate(23,145)"/>
<path d="M0 0 C6.52307692 -0.36923077 6.52307692 -0.36923077 8.9375 1.5 C9.288125 1.995 9.63875 2.49 10 3 C8.35 3 6.7 3 5 3 C5 2.34 5 1.68 5 1 C3.68 1 2.36 1 1 1 C1.26676204 2.98491642 1.26676204 2.98491642 2 5 C2.99 5.33 3.98 5.66 5 6 C4.34 6 3.68 6 3 6 C3.350625 6.598125 3.70125 7.19625 4.0625 7.8125 C5 10 5 10 4 13 C0.47726246 8.48649253 -0.45732667 5.71658336 0 0 Z " fill="#EBAF66" transform="translate(63,152)"/>
<path d="M0 0 C1.32 0 2.64 0 4 0 C4 0.66 4 1.32 4 2 C3.34 2 2.68 2 2 2 C1.74476563 2.71542969 1.48953125 3.43085938 1.2265625 4.16796875 C-0.0876888 7.20246618 -1.69496016 9.63188911 -3.625 12.3125 C-4.25664063 13.19550781 -4.88828125 14.07851562 -5.5390625 14.98828125 C-6.26222656 15.98408203 -6.26222656 15.98408203 -7 17 C-7.33 16.34 -7.66 15.68 -8 15 C-7.360625 14.113125 -6.72125 13.22625 -6.0625 12.3125 C-4.19170243 9.30788572 -3.40576034 7.4489629 -3 4 C-2.34 4 -1.68 4 -1 4 C-0.67 2.68 -0.34 1.36 0 0 Z " fill="#74A856" transform="translate(127,167)"/>
<path d="M0 0 C0.33 0.99 0.66 1.98 1 3 C0.67 3.66 0.34 4.32 0 5 C-0.66 5 -1.32 5 -2 5 C-2.33 6.32 -2.66 7.64 -3 9 C-2.34 9.33 -1.68 9.66 -1 10 C-2.98 10.33 -4.96 10.66 -7 11 C-6.68232368 5.59950264 -3.80003673 3.47662935 0 0 Z " fill="#397018" transform="translate(25,74)"/>
<path d="M0 0 C1.32 0 2.64 0 4 0 C4 0.66 4 1.32 4 2 C5.65 2 7.3 2 9 2 C9 2.66 9 3.32 9 4 C8.01 4.33 7.02 4.66 6 5 C5.67 6.65 5.34 8.3 5 10 C1.55783328 7.3401439 1.00495326 4.09711714 0 0 Z " fill="#F8972F" transform="translate(64,153)"/>
<path d="M0 0 C4.13371903 3.67441691 7.3543783 7.62501483 9 13 C8.6015625 15.24609375 8.6015625 15.24609375 8 17 C7.73445312 16.43410156 7.46890625 15.86820313 7.1953125 15.28515625 C6.84210938 14.55167969 6.48890625 13.81820312 6.125 13.0625 C5.77695313 12.33160156 5.42890625 11.60070312 5.0703125 10.84765625 C4.1315023 8.83667541 4.1315023 8.83667541 2 8 C0.11813998 4.9681144 0 3.75482645 0 0 Z " fill="#619544" transform="translate(197,112)"/>
<path d="M0 0 C1.98 0 3.96 0 6 0 C6 1.65 6 3.3 6 5 C6.928125 5.4640625 6.928125 5.4640625 7.875 5.9375 C9.25 6.625 10.625 7.3125 12 8 C12 8.66 12 9.32 12 10 C12.99 10.33 13.98 10.66 15 11 C14.01 11.495 14.01 11.495 13 12 C10.82737873 10.38247153 8.66200042 8.75661363 6.5 7.125 C5.87996094 6.66480469 5.25992188 6.20460937 4.62109375 5.73046875 C3.04364108 4.53437826 1.51738202 3.27143274 0 2 C0 1.34 0 0.68 0 0 Z " fill="#EEAF62" transform="translate(44,177)"/>
<path d="M0 0 C0.99 0.33 1.98 0.66 3 1 C1.23570801 5.97209562 -1.3939166 10.43438061 -4 15 C-5 12 -5 12 -5 8 C-4.34 8 -3.68 8 -3 8 C-1.61061923 6.03852126 -0.2739589 4.03833424 1 2 C-0.32 2.33 -1.64 2.66 -3 3 C-2.01 2.01 -1.02 1.02 0 0 Z " fill="#609042" transform="translate(99,99)"/>
<path d="M0 0 C2.85442753 -0.05437005 5.70780076 -0.09384974 8.5625 -0.125 C9.36236328 -0.14175781 10.16222656 -0.15851563 10.98632812 -0.17578125 C16.06500335 -0.21723982 20.18811906 0.35943925 25 2 C25 2.33 25 2.66 25 3 C23.741875 3.020625 22.48375 3.04125 21.1875 3.0625 C20.47980469 3.07410156 19.77210937 3.08570312 19.04296875 3.09765625 C17 3 17 3 14 2 C11.60745424 1.77439324 9.21071877 1.59151405 6.8125 1.4375 C5.54019531 1.35371094 4.26789062 1.26992187 2.95703125 1.18359375 C1.98121094 1.12300781 1.00539062 1.06242187 0 1 C0 0.67 0 0.34 0 0 Z " fill="#508133" transform="translate(42,67)"/>
<path d="M0 0 C2.375 0.4375 2.375 0.4375 5 2 C5.78413389 4.33074052 6.18888917 6.57204102 6.54296875 9.00390625 C6.69378906 9.66261719 6.84460938 10.32132813 7 11 C7.66 11.33 8.32 11.66 9 12 C8.67 12.99 8.34 13.98 8 15 C6.66121428 12.8782637 5.32884524 10.75294812 4 8.625 C3.6184375 8.02171875 3.236875 7.4184375 2.84375 6.796875 C0 2.2265625 0 2.2265625 0 0 Z " fill="#6DAC51" transform="translate(85,37)"/>
<path d="M0 0 C0.66 0 1.32 0 2 0 C2.4125 1.093125 2.825 2.18625 3.25 3.3125 C4.33789992 5.90791837 4.77126342 6.83853888 7.125 8.5 C9 10 9 10 9.75 13.6875 C9.87375 15.3271875 9.87375 15.3271875 10 17 C7.59633844 14.74027027 5.72747905 12.35251941 3.875 9.625 C3.35679687 8.87476562 2.83859375 8.12453125 2.3046875 7.3515625 C0.92904036 4.87210269 0.4044241 2.79151269 0 0 Z " fill="#649B4B" transform="translate(132,111)"/>
<path d="M0 0 C6.75 2.75 6.75 2.75 9 5 C9.99 4.34 10.98 3.68 12 3 C11.1875 4.9375 11.1875 4.9375 10 7 C9.01 7.33 8.02 7.66 7 8 C5.29159719 6.36587557 4.06546953 5.13093906 3 3 C0.98330173 1.86649466 0.98330173 1.86649466 -1 1 C-0.67 0.67 -0.34 0.34 0 0 Z " fill="#75B04E" transform="translate(105,111)"/>
<path d="M0 0 C4.29 0 8.58 0 13 0 C11.515 1.485 11.515 1.485 10 3 C9.67 3 9.34 3 9 3 C8.67 3.66 8.34 4.32 8 5 C7.566875 4.525625 7.13375 4.05125 6.6875 3.5625 C4.97690387 1.76313043 4.97690387 1.76313043 2 1 C2 2.98 2 4.96 2 7 C1.67 7 1.34 7 1 7 C0.67 4.69 0.34 2.38 0 0 Z " fill="#4E892D" transform="translate(103,102)"/>
<path d="M0 0 C0 0.66 0 1.32 0 2 C-5.10334017 3.905247 -9.46342706 5.42589023 -15 5 C-15 4.34 -15 3.68 -15 3 C-13.0636296 2.49564306 -11.12585854 1.99666126 -9.1875 1.5 C-8.10855469 1.2215625 -7.02960937 0.943125 -5.91796875 0.65625 C-3 0 -3 0 0 0 Z " fill="#619241" transform="translate(66,94)"/>
<path d="M0 0 C4.95 0 9.9 0 15 0 C14 3 14 3 10.9375 4.6875 C9.968125 5.120625 8.99875 5.55375 8 6 C8 4.68 8 3.36 8 2 C5.36 1.67 2.72 1.34 0 1 C0 0.67 0 0.34 0 0 Z " fill="#6C9852" transform="translate(86,91)"/>
<path d="M0 0 C5.46864457 1.01591421 10.76390013 2.07091057 16 4 C12.19068824 5.26977059 10.18381007 4.52074507 6.3125 3.5625 C4.54326172 3.13130859 4.54326172 3.13130859 2.73828125 2.69140625 C1.83464844 2.46324219 0.93101562 2.23507813 0 2 C0 1.34 0 0.68 0 0 Z " fill="#5D8C3C" transform="translate(161,94)"/>
<path d="M0 0 C0.66 0.33 1.32 0.66 2 1 C1.25 7.75 1.25 7.75 -1 10 C-1.185625 9.1646875 -1.185625 9.1646875 -1.375 8.3125 C-2.05976855 5.77885636 -2.99133763 3.42078968 -4 1 C-2.68 1.33 -1.36 1.66 0 2 C0 1.34 0 0.68 0 0 Z " fill="#357D0B" transform="translate(114,184)"/>
<path d="M0 0 C0.99 0 1.98 0 3 0 C3.09978121 3.49234244 2.77842938 6.59437148 2 10 C1.34 9.67 0.68 9.34 0 9 C0 8.01 0 7.02 0 6 C-0.66 6 -1.32 6 -2 6 C-2.33 4.68 -2.66 3.36 -3 2 C-2.01 2 -1.02 2 0 2 C0 1.34 0 0.68 0 0 Z " fill="#F4A354" transform="translate(31,155)"/>
<path d="M0 0 C1.32 0.33 2.64 0.66 4 1 C4 1.66 4 2.32 4 3 C4.99 3.33 5.98 3.66 7 4 C7 5.32 7 6.64 7 8 C5.35 7.67 3.7 7.34 2 7 C2 5.35 2 3.7 2 2 C1.34 2 0.68 2 0 2 C0 1.34 0 0.68 0 0 Z " fill="#338502" transform="translate(105,103)"/>
<path d="M0 0 C-0.33 1.32 -0.66 2.64 -1 4 C-1.66 4 -2.32 4 -3 4 C-3 4.99 -3 5.98 -3 7 C-4.32 7 -5.64 7 -7 7 C-7.33 6.01 -7.66 5.02 -8 4 C-3.375 0 -3.375 0 0 0 Z " fill="#33820A" transform="translate(120,85)"/>
<path d="M0 0 C0.99 0.33 1.98 0.66 3 1 C2.67 2.32 2.34 3.64 2 5 C1.34 5 0.68 5 0 5 C0 5.66 0 6.32 0 7 C-1.65 7.33 -3.3 7.66 -5 8 C-4.67 7.01 -4.34 6.02 -4 5 C-3.34 5 -2.68 5 -2 5 C-1.34 3.35 -0.68 1.7 0 0 Z " fill="#F7992E" transform="translate(188,165)"/>
<path d="M0 0 C6.75 -0.125 6.75 -0.125 9 1 C8.67 2.32 8.34 3.64 8 5 C6.35 5.33 4.7 5.66 3 6 C3 5.34 3 4.68 3 4 C3.99 4 4.98 4 6 4 C6 3.34 6 2.68 6 2 C4.35 2 2.7 2 1 2 C0.67 1.34 0.34 0.68 0 0 Z " fill="#497F24" transform="translate(181,39)"/>
<path d="M0 0 C3.63 0 7.26 0 11 0 C9.515 1.485 9.515 1.485 8 3 C7.01 4.485 7.01 4.485 6 6 C5.67 4.68 5.34 3.36 5 2 C3.35 2 1.7 2 0 2 C0 1.34 0 0.68 0 0 Z " fill="#387A10" transform="translate(87,92)"/>
<path d="M0 0 C1.32 0.33 2.64 0.66 4 1 C1.69 4.96 -0.62 8.92 -3 13 C-4.2077558 9.37673261 -3.54311128 8.35853631 -2 5 C-1.34 5 -0.68 5 0 5 C0 3.35 0 1.7 0 0 Z " fill="#548A37" transform="translate(135,43)"/>
<path d="M0 0 C1.65 0.33 3.3 0.66 5 1 C3.75 2.5 3.75 2.5 2 4 C0.68 4 -0.64 4 -2 4 C-2 3.34 -2 2.68 -2 2 C-1.34 2 -0.68 2 0 2 C0 1.34 0 0.68 0 0 Z M-6 4 C-4.68 4 -3.36 4 -2 4 C-2.33 4.99 -2.66 5.98 -3 7 C-4.32 6.34 -5.64 5.68 -7 5 C-6.67 4.67 -6.34 4.34 -6 4 Z " fill="#338305" transform="translate(143,17)"/>
<path d="M0 0 C1.258125 -0.04125 2.51625 -0.0825 3.8125 -0.125 C4.52019531 -0.14820313 5.22789063 -0.17140625 5.95703125 -0.1953125 C8 0 8 0 11 2 C8.36 2 5.72 2 3 2 C2.67 3.32 2.34 4.64 2 6 C0 3 0 3 0 0 Z " fill="#679749" transform="translate(73,15)"/>
<path d="M0 0 C2.97 0.495 2.97 0.495 6 1 C6 1.66 6 2.32 6 3 C6.99 3 7.98 3 9 3 C9 3.66 9 4.32 9 5 C10.32 5.33 11.64 5.66 13 6 C10 7 10 7 7.51953125 5.8203125 C6.62621094 5.26085937 5.73289062 4.70140625 4.8125 4.125 C3.91144531 3.57070312 3.01039062 3.01640625 2.08203125 2.4453125 C1.39496094 1.96835938 0.70789062 1.49140625 0 1 C0 0.67 0 0.34 0 0 Z " fill="#E8AB6D" transform="translate(59,189)"/>
<path d="M0 0 C5.57142857 5.14285714 5.57142857 5.14285714 6 9 C6.66 9 7.32 9 8 9 C8 9.99 8 10.98 8 12 C6.125 11.875 6.125 11.875 4 11 C2.875 8.25 2.875 8.25 2 5 C1.34588315 3.32836805 0.68346682 1.65984798 0 0 Z " fill="#EDB669" transform="translate(93,175)"/>
<path d="M0 0 C0.66 0.33 1.32 0.66 2 1 C0 4 0 4 -3 5 C-3.309375 5.66 -3.61875 6.32 -3.9375 7 C-5 9 -5 9 -7.125 9.75 C-8.053125 9.87375 -8.053125 9.87375 -9 10 C-8.67 9.01 -8.34 8.02 -8 7 C-7.34 7 -6.68 7 -6 7 C-5.7525 6.401875 -5.505 5.80375 -5.25 5.1875 C-3.83629988 2.71352479 -2.34944617 1.56629745 0 0 Z " fill="#E6A969" transform="translate(151,156)"/>
<path d="M0 0 C1.0326802 2.78823655 1.04509293 3.8677274 0.0625 6.75 C-0.288125 7.4925 -0.63875 8.235 -1 9 C-1.99 8.34 -2.98 7.68 -4 7 C-4.1875 4.375 -4.1875 4.375 -4 2 C-2.68 1.34 -1.36 0.68 0 0 Z " fill="#348403" transform="translate(116,119)"/>
<path d="M0 0 C2.31 0 4.62 0 7 0 C7 0.66 7 1.32 7 2 C8.32 2 9.64 2 11 2 C11.33 1.34 11.66 0.68 12 0 C12.33 1.32 12.66 2.64 13 4 C8.71 3.34 4.42 2.68 0 2 C0 1.34 0 0.68 0 0 Z " fill="#2C8306" transform="translate(89,82)"/>
<path d="M0 0 C9.59453303 1.55808656 9.59453303 1.55808656 13 6 C9.25 7.125 9.25 7.125 7 6 C7 5.34 7 4.68 7 4 C6.21625 3.71125 5.4325 3.4225 4.625 3.125 C2 2 2 2 0 0 Z " fill="#588B30" transform="translate(65,58)"/>
<path d="M0 0 C0.66 0.33 1.32 0.66 2 1 C-1.63 2.98 -5.26 4.96 -9 7 C-9.66 5.68 -10.32 4.36 -11 3 C-10.37351563 2.86722656 -9.74703125 2.73445312 -9.1015625 2.59765625 C-8.28429687 2.42105469 -7.46703125 2.24445313 -6.625 2.0625 C-5.81289062 1.88847656 -5.00078125 1.71445313 -4.1640625 1.53515625 C-1.970537 1.07669307 -1.970537 1.07669307 0 0 Z " fill="#E8AD68" transform="translate(163,191)"/>
<path d="M0 0 C0.66 0.33 1.32 0.66 2 1 C-0.43969017 5.78902145 -1.97529326 8.62722182 -7 11 C-6.67 9.68 -6.34 8.36 -6 7 C-5.34 7 -4.68 7 -4 7 C-3.71125 6.401875 -3.4225 5.80375 -3.125 5.1875 C-2 3 -2 3 0 0 Z " fill="#EABD7D" transform="translate(140,166)"/>
<path d="M0 0 C0.66 0.33 1.32 0.66 2 1 C-2.455 3.97 -2.455 3.97 -7 7 C-7.66 6.67 -8.32 6.34 -9 6 C-9.625 3.9375 -9.625 3.9375 -10 2 C-8.3603125 2.061875 -8.3603125 2.061875 -6.6875 2.125 C-2.91107771 2.32074666 -2.91107771 2.32074666 0 0 Z " fill="#669A46" transform="translate(78,104)"/>
<path d="M0 0 C0.99 0.33 1.98 0.66 3 1 C3 3.64 3 6.28 3 9 C1.68 9.33 0.36 9.66 -1 10 C-0.34 9.67 0.32 9.34 1 9 C1 7.02 1 5.04 1 3 C0.01 2.67 -0.98 2.34 -2 2 C-1.34 2 -0.68 2 0 2 C0 1.34 0 0.68 0 0 Z " fill="#447C22" transform="translate(119,91)"/>
<path d="M0 0 C1.65 0.33 3.3 0.66 5 1 C5 1.66 5 2.32 5 3 C-0.17578125 6.22265625 -0.17578125 6.22265625 -2 7 C-2.99 6.67 -3.98 6.34 -5 6 C-4.360625 5.7525 -3.72125 5.505 -3.0625 5.25 C-0.81258459 4.18437567 -0.81258459 4.18437567 -0.25 1.875 C-0.1675 1.25625 -0.085 0.6375 0 0 Z " fill="#5B9536" transform="translate(146,63)"/>
<path d="M0 0 C-1.38866323 0.9893091 -2.78629851 1.96603078 -4.1875 2.9375 C-4.96480469 3.48277344 -5.74210938 4.02804688 -6.54296875 4.58984375 C-9.07950299 6.0456289 -11.1218182 6.59613435 -14 7 C-13.21625 6.38125 -12.4325 5.7625 -11.625 5.125 C-9.03162353 3.10141339 -9.03162353 3.10141339 -7 1 C-2.38461538 -1.19230769 -2.38461538 -1.19230769 0 0 Z " fill="#67984C" transform="translate(183,47)"/>
<path d="M0 0 C0.66 0.33 1.32 0.66 2 1 C1.67 1.66 1.34 2.32 1 3 C0.34 3 -0.32 3 -1 3 C-1 3.66 -1 4.32 -1 5 C-2.5 6.625 -2.5 6.625 -4 8 C-6.475 7.01 -6.475 7.01 -9 6 C-7 4 -7 4 -4.375 3.875 C-3.59125 3.91625 -2.8075 3.9575 -2 4 C-2 3.34 -2 2.68 -2 2 C-1.34 2 -0.68 2 0 2 C0 1.34 0 0.68 0 0 Z " fill="#EFAC56" transform="translate(190,168)"/>
<path d="M0 0 C0.66 0 1.32 0 2 0 C2 0.66 2 1.32 2 2 C2.99 2.33 3.98 2.66 5 3 C6.25 5.9375 6.25 5.9375 7 9 C6.67 9.66 6.34 10.32 6 11 C4.02 7.37 2.04 3.74 0 0 Z " fill="#689648" transform="translate(145,134)"/>
<path d="M0 0 C0 3.3 0 6.6 0 10 C-0.33 10 -0.66 10 -1 10 C-1 7.69 -1 5.38 -1 3 C-2.65 3 -4.3 3 -6 3 C-6 2.34 -6 1.68 -6 1 C-4 0 -4 0 0 0 Z " fill="#3A7B17" transform="translate(123,113)"/>
<path d="M0 0 C-3.83325617 2.70582788 -6.32538149 3.32613618 -11 3 C-11 2.34 -11 1.68 -11 1 C-3.57142857 -1.42857143 -3.57142857 -1.42857143 0 0 Z " fill="#358702" transform="translate(142,81)"/>
<path d="M0 0 C0.66 0 1.32 0 2 0 C2 3 2 3 0.3203125 4.7890625 C-0.40414062 5.39492188 -1.12859375 6.00078125 -1.875 6.625 C-2.59429687 7.23601563 -3.31359375 7.84703125 -4.0546875 8.4765625 C-6 10 -6 10 -8 11 C-6.49230769 7.23076923 -6.49230769 7.23076923 -4 6.0625 C-1.25013332 4.60163333 -0.91166696 2.88694538 0 0 Z " fill="#73A453" transform="translate(141,52)"/>
<path d="M0 0 C0.66 0 1.32 0 2 0 C1.49396008 2.16874252 1.00016187 3.99967627 0 6 C-1.65 6 -3.3 6 -5 6 C-3.38405168 3.95880212 -1.7143618 1.95927063 0 0 Z " fill="#5B9039" transform="translate(36,105)"/>
<path d="M0 0 C0.99 0 1.98 0 3 0 C3 0.99 3 1.98 3 3 C1.68 3 0.36 3 -1 3 C-1 3.66 -1 4.32 -1 5 C-1.99 5 -2.98 5 -4 5 C-4 4.34 -4 3.68 -4 3 C-4.66 2.67 -5.32 2.34 -6 2 C-4.7934375 1.7834375 -4.7934375 1.7834375 -3.5625 1.5625 C-1.07896294 1.25864751 -1.07896294 1.25864751 0 0 Z " fill="#FA9A2A" transform="translate(177,172)"/>
<path d="M0 0 C3.63 0 7.26 0 11 0 C11 0.66 11 1.32 11 2 C7.33333333 2 3.66666667 2 0 2 C0 1.34 0 0.68 0 0 Z " fill="#367F12" transform="translate(130,92)"/>
<path d="M0 0 C1.46224799 0.42423244 2.91973412 0.86490245 4.375 1.3125 C5.18710938 1.55613281 5.99921875 1.79976562 6.8359375 2.05078125 C9 3 9 3 11 6 C8.69 5.67 6.38 5.34 4 5 C4 4.34 4 3.68 4 3 C2.68 2.67 1.36 2.34 0 2 C0 1.34 0 0.68 0 0 Z " fill="#5D9A3B" transform="translate(64,38)"/>
<path d="M0 0 C4.0369867 1.79421631 6.64480474 3.20551875 9 7 C8.01 7 7.02 7 6 7 C6 6.34 6 5.68 6 5 C4.68 4.67 3.36 4.34 2 4 C2 3.34 2 2.68 2 2 C1.34 2 0.68 2 0 2 C0 1.34 0 0.68 0 0 Z " fill="#E7A066" transform="translate(73,155)"/>
<path d="M0 0 C1.65 0 3.3 0 5 0 C5.103125 0.598125 5.20625 1.19625 5.3125 1.8125 C6.08876455 4.28243264 7.07088921 5.32251235 9 7 C6 7 6 7 4.39453125 5.46875 C3.87246094 4.8190625 3.35039063 4.169375 2.8125 3.5 C2.28269531 2.8503125 1.75289063 2.200625 1.20703125 1.53125 C0.80871094 1.0259375 0.41039063 0.520625 0 0 Z " fill="#75A156" transform="translate(85,155)"/>
<path d="M0 0 C0.99 0.33 1.98 0.66 3 1 C3 1.66 3 2.32 3 3 C2.34 3 1.68 3 1 3 C2.25541557 5.51083114 3.50063488 5.87125446 6 7 C4.68 7.33 3.36 7.66 2 8 C0.4375 6.25 0.4375 6.25 -1 4 C-0.6875 1.75 -0.6875 1.75 0 0 Z " fill="#357A0E" transform="translate(157,104)"/>
<path d="M0 0 C-1.32 0.33 -2.64 0.66 -4 1 C-4 1.66 -4 2.32 -4 3 C-6.31 3.33 -8.62 3.66 -11 4 C-7.95841042 -0.56238437 -5.1474794 -0.11438843 0 0 Z " fill="#E2B376" transform="translate(164,152)"/>
<path d="M0 0 C0.33 0 0.66 0 1 0 C1 2.64 1 5.28 1 8 C0.01 8 -0.98 8 -2 8 C-2.33 7.01 -2.66 6.02 -3 5 C-2.67 4.34 -2.34 3.68 -2 3 C-1.34 3 -0.68 3 0 3 C0 2.01 0 1.02 0 0 Z " fill="#338403" transform="translate(121,116)"/>
<path d="M0 0 C2.49361571 1.20381448 4.68143083 2.45428722 7 4 C7 4.66 7 5.32 7 6 C5.125 6.625 5.125 6.625 3 7 C2.34 6.34 1.68 5.68 1 5 C1.66 5 2.32 5 3 5 C2.01 3.35 1.02 1.7 0 0 Z " fill="#5E993D" transform="translate(132,102)"/>
<path d="M0 0 C-1.20381448 2.49361571 -2.45428722 4.68143083 -4 7 C-4 6.34 -4 5.68 -4 5 C-4.66 5 -5.32 5 -6 5 C-3.74193548 0 -3.74193548 0 0 0 Z " fill="#367E09" transform="translate(100,101)"/>
<path d="M0 0 C2.31 0 4.62 0 7 0 C7 0.99 7 1.98 7 3 C5.02 3 3.04 3 1 3 C0.67 2.01 0.34 1.02 0 0 Z " fill="#358602" transform="translate(85,94)"/>
<path d="M0 0 C2.31 0 4.62 0 7 0 C7.33 0.99 7.66 1.98 8 3 C5.69 3 3.38 3 1 3 C0.67 2.01 0.34 1.02 0 0 Z " fill="#F8BC52" transform="translate(96,202)"/>
<path d="M0 0 C1.65 0.99 3.3 1.98 5 3 C2 5 2 5 -0.1875 4.625 C-0.785625 4.41875 -1.38375 4.2125 -2 4 C-2 3.34 -2 2.68 -2 2 C-1.34 2 -0.68 2 0 2 C0 1.34 0 0.68 0 0 Z " fill="#EA8F36" transform="translate(180,173)"/>
<path d="M0 0 C-0.33 1.32 -0.66 2.64 -1 4 C-2.98 4.33 -4.96 4.66 -7 5 C-6 2 -6 2 -4.0625 0.8125 C-2 0 -2 0 0 0 Z " fill="#367E12" transform="translate(123,136)"/>
<path d="M0 0 C0.33 0.66 0.66 1.32 1 2 C-1.17424117 4.50037734 -2.73045798 5.43628586 -6 6 C-4.95125002 3.37812506 -4.35068687 2.20628639 -1.875 0.75 C-1.25625 0.5025 -0.6375 0.255 0 0 Z " fill="#4B822C" transform="translate(32,70)"/>
<path d="M0 0 C1.32 0.33 2.64 0.66 4 1 C4 1.99 4 2.98 4 4 C3.34 4 2.68 4 2 4 C2 4.66 2 5.32 2 6 C1.34 6 0.68 6 0 6 C0 4.02 0 2.04 0 0 Z " fill="#E79032" transform="translate(132,176)"/>
<path d="M0 0 C2.5 1.375 2.5 1.375 5 3 C5 3.66 5 4.32 5 5 C4.34 5 3.68 5 3 5 C3 5.66 3 6.32 3 7 C2.34 7 1.68 7 1 7 C0.67 4.69 0.34 2.38 0 0 Z " fill="#EEA35C" transform="translate(55,170)"/>
<path d="M0 0 C2.97 0.495 2.97 0.495 6 1 C3.68143083 2.54571278 1.49361571 3.79618552 -1 5 C-0.67 3.35 -0.34 1.7 0 0 Z " fill="#3F8017" transform="translate(116,123)"/>
<path d="M0 0 C0 0.66 0 1.32 0 2 C-0.66 2 -1.32 2 -2 2 C-2 2.66 -2 3.32 -2 4 C-4.31 4.33 -6.62 4.66 -9 5 C-7.36885863 1.73771726 -3.62038485 0 0 0 Z " fill="#5C9342" transform="translate(49,99)"/>
<path d="M0 0 C1.98 0 3.96 0 6 0 C4.60210322 2.79579355 2.7371003 3.59807058 0 5 C-0.66 4.67 -1.32 4.34 -2 4 C-1.34 2.68 -0.68 1.36 0 0 Z " fill="#659343" transform="translate(87,97)"/>
<path d="M0 0 C0 0.66 0 1.32 0 2 C-0.66 2 -1.32 2 -2 2 C-2 2.66 -2 3.32 -2 4 C-4.31 4 -6.62 4 -9 4 C-3 0 -3 0 0 0 Z " fill="#619534" transform="translate(156,70)"/>
</svg>
